<?xml version="1.0" encoding="UTF-8" standalone="no"?>
<!-- Created with Inkscape (http://www.inkscape.org/) -->

<svg
   width="67.73333mm"
   height="67.73333mm"
   viewBox="0 0 67.73333 67.73333"
   version="1.1"
   id="svg19803"
   inkscape:version="1.2.1 (9c6d41e410, 2022-07-14)"
   sodipodi:docname="icon.svg"
   xmlns:inkscape="http://www.inkscape.org/namespaces/inkscape"
   xmlns:sodipodi="http://sodipodi.sourceforge.net/DTD/sodipodi-0.dtd"
   xmlns="http://www.w3.org/2000/svg"
   xmlns:svg="http://www.w3.org/2000/svg">
  <sodipodi:namedview
     id="namedview19805"
     pagecolor="#ffffff"
     bordercolor="#000000"
     borderopacity="0.25"
     inkscape:showpageshadow="2"
     inkscape:pageopacity="0.0"
     inkscape:pagecheckerboard="0"
     inkscape:deskcolor="#d1d1d1"
     inkscape:document-units="mm"
     showgrid="false"
     inkscape:zoom="0.76880612"
     inkscape:cx="-109.26032"
     inkscape:cy="27.315079"
     inkscape:window-width="2560"
     inkscape:window-height="1017"
     inkscape:window-x="-8"
     inkscape:window-y="-8"
     inkscape:window-maximized="1"
     inkscape:current-layer="layer1" />
  <defs
     id="defs19800" />
  <g
     inkscape:label="Camada 1"
     inkscape:groupmode="layer"
     id="layer1"
     transform="translate(-80.771298,-140.99709)">
    <g
       id="g15340"
       transform="matrix(8.0000004,0,0,7.9997039,388.53315,-757.46205)">
      <ellipse
         style="fill:#ffffff;fill-opacity:1;stroke:none;stroke-width:0.98407;stroke-opacity:1"
         id="path12343-6-3-2"
         cx="-34.236897"
         cy="116.54489"
         rx="4.2333331"
         ry="4.2333312" />
      <path
         id="path6308-6-3-5"
         style="fill:#0972ad;fill-opacity:1;stroke-width:0.0580232"
         d="m -34.236896,112.31155 a 4.2333385,4.2333465 0 0 0 -0.588082,0.0461 c -0.04635,0.15124 -0.08753,0.30794 -0.121137,0.46982 -0.229785,1.10752 -0.324639,2.88658 0.450664,4.74803 -0.0013,-0.11582 -0.07215,-2.82294 1.492649,-5.07974 a 4.2333385,4.2333465 0 0 0 -1.234094,-0.1842 z m -0.773804,0.0736 a 4.2333385,4.2333465 0 0 0 -1.632466,0.68013 c 0.02128,0.16342 0.04671,0.32545 0.07742,0.48449 0.397226,2.05739 1.257583,3.41917 1.934917,4.12768 -0.331764,-0.78555 -0.537946,-1.70203 -0.612759,-2.5281 -0.07081,-0.78377 -0.02495,-1.57643 0.136698,-2.3553 0.02917,-0.14051 0.06156,-0.27678 0.09619,-0.4089 z m 2.223815,0.18308 c -0.755475,1.01387 -1.327606,2.33164 -1.494807,3.91443 0.410141,-0.92226 1.169863,-2.00307 2.15803,-2.86521 0.161973,-0.14126 0.328239,-0.2763 0.497139,-0.40497 a 4.2333385,4.2333465 0 0 0 -1.160362,-0.64425 z m -4.01112,0.61193 a 4.2333385,4.2333465 0 0 0 -1.018177,1.11187 c 0.118145,0.17213 0.241665,0.34082 0.371805,0.50641 0.01915,0.0245 0.03876,0.049 0.05835,0.0735 0.008,0.0102 0.01645,0.0209 0.02492,0.0312 0.01024,0.0129 0.02049,0.0254 0.03074,0.0379 0.01203,0.0151 0.0245,0.0303 0.03697,0.0454 0.0018,0.002 0.0036,0.004 0.0053,0.007 0.507666,0.61633 1.172989,1.29276 1.957645,1.99192 -0.546854,-0.76417 -1.099515,-1.86634 -1.396099,-3.40403 -0.02557,-0.13241 -0.04941,-0.26623 -0.07148,-0.40077 z m 5.305933,0.14212 c -0.177603,0.13026 -0.35279,0.26977 -0.523827,0.41897 -1.129779,0.98595 -1.953621,2.22392 -2.283604,3.24371 0.352694,-0.37051 0.940967,-0.94674 1.680201,-1.51274 0.652075,-0.49934 1.294691,-0.93006 1.921784,-1.24885 a 4.2333385,4.2333465 0 0 0 -0.794554,-0.90109 z m 0.873682,1.0264 c -1.127704,0.55053 -2.126872,1.39305 -2.828779,2.03287 0.177359,-0.085 1.789553,-0.46997 3.396533,-0.46226 a 4.2333385,4.2333465 0 0 0 -0.567754,-1.57061 z m -7.291883,0.10032 a 4.2333385,4.2333465 0 0 0 -0.487755,1.33137 c 1.611035,1.41098 3.141291,2.12754 4.339419,2.62072 0.01514,0.006 0.03209,0.002 0.04768,0.004 -0.105096,-0.0815 -0.252965,-0.19772 -0.431984,-0.3429 -0.0058,-0.004 -0.01111,-0.008 -0.01601,-0.0129 -0.500541,-0.40705 -1.236665,-1.1365 -1.954077,-1.85525 -0.01069,-0.0111 -0.02182,-0.0218 -0.03251,-0.0329 -0.01158,-0.012 -0.02362,-0.0236 -0.0352,-0.0356 -0.389211,-0.39322 -0.731208,-0.7731 -1.023784,-1.13781 -8.75e-4,-8.8e-4 -0.0014,-0.002 -0.0022,-0.003 -0.02227,-0.0285 -0.04498,-0.0566 -0.06681,-0.0846 -0.11568,-0.14718 -0.227734,-0.29753 -0.336754,-0.45097 z m -0.523436,1.5719 a 4.2333385,4.2333465 0 0 0 -0.03652,0.52398 4.2333385,4.2333465 0 0 0 0.08024,0.81858 c 1.157531,0.35694 2.447612,0.7016 3.7075,0.96237 -1.060965,-0.48434 -2.385633,-1.18364 -3.751216,-2.30493 z m 8.071356,0.12693 c -0.818934,-0.001 -1.875719,0.0973 -3.100408,0.43591 0.657921,-0.0114 2.111411,-0.0941 3.445167,0.24656 a 4.2333385,4.2333465 0 0 0 0.01403,-0.28542 4.2333385,4.2333465 0 0 0 -0.0185,-0.39057 c -0.108339,-0.004 -0.22178,-0.006 -0.340292,-0.007 z m -2.555773,0.60247 c 0.31217,0.19951 0.90399,0.49342 1.540354,1.00955 0.318805,0.25873 0.611579,0.51755 0.877401,0.77419 a 4.2333385,4.2333465 0 0 0 0.459059,-1.45721 c -1.03315,-0.26853 -2.146132,-0.30908 -2.876814,-0.32653 z m -0.749487,0.006 c -0.03744,2.4e-4 -0.06636,7.5e-4 -0.08462,0.002 h -0.07925 c -0.07036,0.0659 -0.385203,0.38743 -0.47783,0.47784 -0.0045,0.22533 0,0.43373 0,0.67554 0.331764,0.32776 0.374961,0.36917 0.47783,0.47783 h 0.675547 c 0.176792,-0.19505 0.460908,-0.45957 0.477829,-0.47783 0.0036,-0.18614 0,-0.67554 0,-0.67554 -0.06457,-0.0704 -0.477829,-0.47784 -0.477829,-0.47784 -0.21008,0 -0.399357,-0.002 -0.511682,-0.002 z m 1.18366,0.48194 c 0.367838,0.54137 0.885106,1.39841 1.297481,2.2375 a 4.2333385,4.2333465 0 0 0 0.599506,-0.79557 c -0.30436,-0.29641 -0.614049,-0.56497 -0.895451,-0.79312 -0.363828,-0.2948 -0.712523,-0.44799 -1.001536,-0.64883 z m -0.03338,0.24494 0.0067,0.17322 c 0.01158,0.23647 0.01739,0.47339 0.01739,0.7103 0.0011,0.69634 0.03748,1.38714 -0.03361,2.04707 a 4.2333385,4.2333465 0 0 0 1.167649,-0.77021 c -0.343013,-0.77282 -0.780593,-1.58566 -1.158079,-2.1604 z m -5.812454,0.12399 a 4.2333385,4.2333465 0 0 0 0.509943,1.18483 c 1.388275,0.0633 2.716703,-0.004 3.863657,-0.21912 -0.71207,-0.0452 -2.415329,-0.40011 -4.3736,-0.96571 z m 5.67171,0.58673 c -0.280939,0.636 -0.633659,1.57507 -1.2391,2.56798 a 4.2333385,4.2333465 0 0 0 1.076916,-0.23277 c 0.109267,-0.71656 0.164331,-1.45956 0.163534,-2.18109 -4.75e-4,-0.0512 -4.75e-4,-0.10243 -0.0014,-0.15409 z m -0.262722,0.18171 c -0.0334,0.0374 -0.0677,0.0757 -0.102876,0.11445 -0.0067,0.0142 -0.01738,0.0263 -0.03118,0.0347 -0.562867,0.61936 -1.29161,1.33853 -2.166096,2.13284 a 4.2333385,4.2333465 0 0 0 0.984056,0.12093 4.2333385,4.2333465 0 0 0 0.135649,-0.007 h -0.08651 c 0.567785,-0.92894 1.008226,-1.83073 1.266957,-2.39629 z m -0.538848,0.25873 c -0.462813,0.10929 -2.039713,0.39537 -4.227517,0.35673 a 4.2333385,4.2333465 0 0 0 0.656896,0.72892 c 1.550997,-0.26887 2.813222,-0.6707 3.570621,-1.08565 z m -0.183024,0.28007 c -0.447583,0.21893 -1.568999,0.63415 -3.216626,0.95005 a 4.2333385,4.2333465 0 0 0 1.399431,0.73295 c 0.649863,-0.5816 1.33342,-1.17684 1.817199,-1.68329 z" />
    </g>
  </g>
</svg>
