<?xml version="1.0" encoding="UTF-8" standalone="no"?>
<!-- Created with Inkscape (http://www.inkscape.org/) -->

<svg
   width="67.73333mm"
   height="67.73333mm"
   viewBox="0 0 67.73333 67.73333"
   version="1.1"
   id="svg19803"
   sodipodi:docname="icon-orange.svg"
   inkscape:version="1.2.1 (9c6d41e410, 2022-07-14)"
   xmlns:inkscape="http://www.inkscape.org/namespaces/inkscape"
   xmlns:sodipodi="http://sodipodi.sourceforge.net/DTD/sodipodi-0.dtd"
   xmlns="http://www.w3.org/2000/svg"
   xmlns:svg="http://www.w3.org/2000/svg">
  <sodipodi:namedview
     id="namedview19805"
     pagecolor="#ffffff"
     bordercolor="#000000"
     borderopacity="0.25"
     inkscape:showpageshadow="2"
     inkscape:pageopacity="0.0"
     inkscape:pagecheckerboard="0"
     inkscape:deskcolor="#d1d1d1"
     inkscape:document-units="mm"
     showgrid="false"
     inkscape:zoom="0.76880612"
     inkscape:cx="-148.28186"
     inkscape:cy="27.315079"
     inkscape:window-width="2560"
     inkscape:window-height="1017"
     inkscape:window-x="-8"
     inkscape:window-y="-8"
     inkscape:window-maximized="1"
     inkscape:current-layer="layer1" />
  <defs
     id="defs19800" />
  <g
     inkscape:label="Camada 1"
     inkscape:groupmode="layer"
     id="layer1"
     transform="translate(-80.771298,-140.99709)">
    <ellipse
       style="fill:#ffffff;fill-opacity:1;stroke:none;stroke-width:7.87241;stroke-opacity:1"
       id="path12343-6-3-2"
       cx="114.63796"
       cy="174.86258"
       rx="33.866665"
       ry="33.865395" />
    <path
       id="path6308-6-3-5"
       style="fill:#cb975d;fill-opacity:1;stroke-width:0.464177"
       d="m 114.63797,140.99709 a 33.86671,33.865519 0 0 0 -4.70466,0.36879 c -0.3708,1.20988 -0.70024,2.46343 -0.96909,3.75842 -1.83828,8.85983 -2.59712,23.09179 3.60531,37.98284 -0.0104,-0.92653 -0.5772,-22.58269 11.94119,-40.63642 a 33.86671,33.865519 0 0 0 -9.87275,-1.47355 z m -6.19043,0.58878 a 33.86671,33.865519 0 0 0 -13.059733,5.44084 c 0.17024,1.30731 0.37368,2.60351 0.61936,3.87578 3.177809,16.45851 10.060663,27.35235 15.479333,33.02022 -2.65411,-6.28417 -4.30356,-13.61574 -4.90207,-20.22406 -0.56648,-6.26992 -0.1996,-12.61097 1.09359,-18.8417 0.23336,-1.12404 0.49248,-2.21416 0.76952,-3.27108 z m 17.79052,1.46459 c -6.0438,8.11066 -10.62085,18.65243 -11.95846,31.31428 3.28113,-7.37781 9.3589,-16.02397 17.26424,-22.92083 1.29579,-1.13004 2.62591,-2.21032 3.97711,-3.23964 a 33.86671,33.865519 0 0 0 -9.28289,-5.15381 z m -32.088965,4.89526 a 33.86671,33.865519 0 0 0 -8.145416,8.89463 c 0.94516,1.37699 1.93332,2.72646 2.97444,4.05113 0.1532,0.19599 0.31008,0.39198 0.4668,0.58798 0.064,0.0816 0.1316,0.16719 0.19936,0.24959 0.08192,0.10319 0.16392,0.20319 0.24592,0.30319 0.09624,0.12079 0.196,0.24239 0.29576,0.36318 0.0144,0.016 0.0288,0.032 0.0424,0.056 4.061328,4.93046 9.383913,10.3417 15.661161,15.93477 -4.37483,-6.11313 -8.796121,-14.93017 -11.168793,-27.23123 -0.20456,-1.05924 -0.39528,-2.12976 -0.57184,-3.20604 z m 42.447465,1.13692 c -1.42082,1.04204 -2.82232,2.15808 -4.19061,3.35163 -9.03824,7.88731 -15.62897,17.7907 -18.26884,25.94872 2.82155,-2.96397 7.52774,-7.57364 13.44161,-12.10147 5.2166,-3.99457 10.35753,-7.44021 15.37427,-9.99043 a 33.86671,33.865519 0 0 0 -6.35643,-7.20845 z m 6.98946,8.21089 c -9.02163,4.40408 -17.01498,11.14399 -22.63024,16.26236 1.41888,-0.67998 14.31643,-3.75962 27.17227,-3.69794 a 33.86671,33.865519 0 0 0 -4.54203,-12.56442 z m -58.335069,0.80253 a 33.86671,33.865519 0 0 0 -3.90204,10.65057 c 12.88828,11.28742 25.130329,17.01969 34.715349,20.96498 0.12112,0.048 0.25672,0.016 0.38144,0.032 -0.84076,-0.65198 -2.02372,-1.5817 -3.45587,-2.7431 -0.0464,-0.032 -0.0889,-0.064 -0.12808,-0.10319 -4.00433,-3.25628 -9.89332,-9.09167 -15.632615,-14.84146 -0.08552,-0.0888 -0.17456,-0.17439 -0.26008,-0.26319 -0.09264,-0.096 -0.18896,-0.18879 -0.2816,-0.28478 -3.113688,-3.14565 -5.849664,-6.18458 -8.190272,-9.10215 -0.007,-0.007 -0.0112,-0.016 -0.0176,-0.024 -0.17816,-0.22799 -0.35984,-0.45278 -0.53448,-0.67677 -0.92544,-1.1774 -1.821872,-2.38015 -2.694032,-3.60763 z m -4.187488,12.57474 a 33.86671,33.865519 0 0 0 -0.29216,4.19168 33.86671,33.865519 0 0 0 0.64192,6.5484 c 9.260248,2.85541 19.580897,5.61259 29.659997,7.69867 -8.48772,-3.87457 -19.085061,-9.46877 -30.009725,-18.43875 z m 64.570847,1.0154 c -6.55147,-0.008 -15.00575,0.77837 -24.80326,3.48715 5.26337,-0.0912 16.89129,-0.75277 27.56134,1.97241 a 33.86671,33.865519 0 0 0 0.11224,-2.28328 33.86671,33.865519 0 0 0 -0.148,-3.12444 c -0.86672,-0.032 -1.77424,-0.048 -2.72234,-0.056 z m -20.44618,4.81958 c 2.49736,1.59602 7.23192,3.94721 12.32283,8.0761 2.55044,2.06976 4.89263,4.14025 7.01921,6.19329 a 33.86671,33.865519 0 0 0 3.67247,-11.65725 c -8.2652,-2.14816 -17.16905,-2.47254 -23.01451,-2.61214 z m -5.9959,0.048 c -0.29952,0.002 -0.53088,0.006 -0.67696,0.016 h -0.634 c -0.56288,0.52718 -3.08162,3.09932 -3.82264,3.82258 -0.036,1.80257 0,3.46971 0,5.40412 2.65411,2.62198 2.99969,2.95325 3.82264,3.82249 h 5.40438 c 1.41433,-1.56034 3.68726,-3.67642 3.82263,-3.82249 0.0288,-1.48907 0,-5.40412 0,-5.40412 -0.51656,-0.56318 -3.82263,-3.82258 -3.82263,-3.82258 -1.68064,0 -3.19486,-0.016 -4.09346,-0.016 z m 9.46928,3.85538 c 2.94271,4.3308 7.08085,11.18686 10.37985,17.89933 a 33.86671,33.865519 0 0 0 4.79605,-6.36432 c -2.43488,-2.37119 -4.91239,-4.51959 -7.16361,-6.34473 -2.91062,-2.35831 -5.70018,-3.58378 -8.01229,-5.19044 z m -0.26704,1.95944 0.0536,1.38571 c 0.0926,1.89169 0.13912,3.78698 0.13912,5.68219 0.009,5.57052 0.29984,11.09671 -0.26888,16.37596 a 33.86671,33.865519 0 0 0 9.3412,-6.16146 c -2.74411,-6.18233 -6.24475,-12.68481 -9.26464,-17.28256 z m -46.499631,0.99189 a 33.86671,33.865519 0 0 0 4.079544,9.47829 c 11.1062,0.50638 21.733627,-0.032 30.909257,-1.7529 -5.69656,-0.36159 -19.322633,-3.20076 -34.988801,-7.72539 z m 45.373681,4.69366 c -2.24751,5.08781 -5.06927,12.6001 -9.9128,20.54308 a 33.86671,33.865519 0 0 0 8.61533,-1.86209 c 0.87413,-5.73227 1.31465,-11.67605 1.30827,-17.44807 -0.004,-0.40959 -0.004,-0.81941 -0.0112,-1.23268 z m -2.10178,1.45363 c -0.2672,0.29919 -0.5416,0.60558 -0.823,0.91557 -0.0536,0.11359 -0.13904,0.21039 -0.24944,0.27758 -4.50294,4.9547 -10.33288,10.70785 -17.32877,17.06209 a 33.86671,33.865519 0 0 0 7.87245,0.96741 33.86671,33.865519 0 0 0 1.08519,-0.056 h -0.69208 c 4.54228,-7.43125 8.06581,-14.6453 10.13565,-19.16961 z m -4.31078,2.06976 c -3.7025,0.87429 -16.3177,3.16285 -33.820137,2.85374 a 33.86671,33.865519 0 0 0 5.255168,5.83114 c 12.407979,-2.15088 22.505779,-5.3654 28.564969,-8.68488 z m -1.46419,2.24048 c -3.58067,1.75137 -12.55199,5.07301 -25.733011,7.60012 a 33.86671,33.865519 0 0 0 11.195451,5.86338 c 5.1989,-4.65263 10.66736,-9.41437 14.53759,-13.46582 z" />
  </g>
</svg>
