<?xml version="1.0" encoding="UTF-8"?><svg id="Camada_1" xmlns="http://www.w3.org/2000/svg" viewBox="0 0 843.75 246.5"><defs><style>.cls-1{fill:#fff;}</style></defs><path class="cls-1" d="m382.11,161.77c-34.31-23.88-90.04-20.37-110.73-20.01,62.86-17.38,106.02-6.61,110.73-5.21v-6.2s0,0,0,0h0c-43.19-10.04-105.1,4.34-110.38,6.87,21.48-19.58,55.35-47.63,92.04-55.99.24-.05.47-.11.7-.16,3.85,1.26,15.91,7.94,17.63,8.59v-6.12c-1.71-.64-3.77-1.28-5.37-1.9-1.82-.7-3.58-1.38-5.38-2.05,3.47-.7,7.45-1.23,10.75-1.63v-6.33c-5.56,1.38-12.12,4.42-19.15,6.02-23.13,5.27-47.57,19.96-72.63,39.15-16.6,12.71-29.81,25.65-37.73,33.97,7.41-22.9,25.91-50.7,51.28-72.84,25.62-22.35,55.34-35.21,78.23-38.87v-6.31c-23.54,3.77-54.53,19.62-80.65,42.4-22.19,19.36-39.25,43.63-48.46,64.34,6.24-59.07,37.58-101.73,71.23-123.88,27.46-6.57,46.16.85,57.88,5.77v-6.07c-10.72-4.5-25.96-8.87-48.66-5.3,4.91-3.18,15.22-8.52,20.09-10.49h-12.08c-96.36,45.17-93.3,160.9-93.26,164.51-17.41-41.8-15.28-81.75-10.12-106.62,6.51-31.36,25.25-54.5,28.96-57.89h-8.33c-5.36,4.89-17.97,26.93-24.24,57.14-3.63,17.49-4.66,35.29-3.07,52.89,1.68,18.55,6.31,39.13,13.76,56.77-15.21-15.91-34.53-46.49-43.45-92.69-4.77-24.7-4.47-52.4.83-74.11h-6.25c-5.42,22.21-3.06,49.59,1.81,74.81,6.66,34.53,19.07,59.28,31.35,76.44-17.62-15.7-32.56-30.89-43.96-44.73-.04-.05-.08-.1-.12-.15-.28-.34-.56-.68-.83-1.02-.23-.28-.46-.56-.69-.85-.19-.23-.38-.47-.56-.7-.44-.55-.88-1.1-1.31-1.65-22.28-28.35-36.12-60.61-50.86-102.15h0s0,0,0,0h-6.15c14.88,41.92,31.56,75.74,54.11,104.43.49.63,1,1.26,1.5,1.9.02.02.03.04.05.06,6.57,8.19,14.25,16.72,22.99,25.55.26.27.53.53.79.8.24.25.49.49.73.74,16.11,16.14,32.64,32.52,43.88,41.66.11.11.23.21.36.29,4.02,3.26,7.34,5.87,9.7,7.7-.35-.03-.73.05-1.07-.08-43-17.7-105.05-48.21-163.11-134.72-3.62-14.7-3.16-32.02-3.88-48.32h-6.35c.58,13.01,1.04,27.64,3.45,39.71-7.55-11.92-13.74-25.86-20.57-39.71h-8.65c56.18,112.8,134.17,158.1,185.1,181.35-69.33-14.35-142.75-40.01-166.39-53.33C46.24,106.19-.06,30.44-.06,30.44v11.29c.18.53,40.85,63.26,64.62,82.87C38.11,113.35,12.52,97.41-.06,89.08v8.42c72.07,48.23,223.94,86.61,260.36,88.92-74.71,14.03-183.7.05-260.36-32.21v6.13c130.29,53.09,250.76,32.36,271.51,27.46C227.99,211.61,110.52,233.5-.06,208.55v8.92c142.01,22.27,244.38-12.12,267.4-23.38-11.95,12.51-29.37,27.45-45.19,41.72h6.92c20.92-18.87,38.22-35.89,51.47-50.47.31-.19.55-.46.7-.78.79-.87,1.56-1.73,2.31-2.57-5.81,12.7-15.7,32.95-28.45,53.81h6.39c13.68-22.38,21.63-43.56,27.96-57.89.02,1.16.02,2.31.03,3.46.02,18.04-1.51,36.68-4.55,54.43-.07.41-.14-.41-.22,0h0s0,0,0,0h3.62s0,0,0,0h0c.09-.52,2.85.52,2.94,0,3.06-17.2,1.91-35.52,1.88-54.01,0-5.32-.13-10.64-.39-15.95l-.15-3.89c12.86,19.58,28.86,51.48,35.77,73.85h6.19c-7.71-24.98-28.47-60.6-41.21-79.35,6.49,4.51,14.32,7.95,22.49,14.57,13.74,11.14,30.49,26.53,42.46,43.45,0,0,1.33,4.33.33,21.34h6.34c-.2-1.88-1.33-12.27-2.25-16.59,1.83,3.25,6.52,13.29,7.87,16.59h5.66c-4.53-11.15-15.69-25.84-26.55-38.03-8.65-9.7-19.25-19.66-31.51-29.61-14.29-11.59-27.58-18.19-34.59-22.67,25.13.6,70.4,2.41,98.52,21.98v-5.7Zm-93.11-5.37s.08,10.99,0,15.17c-.38.41-6.76,6.35-10.73,10.73h-15.17c-2.31-2.44-3.28-3.37-10.73-10.73,0-5.43-.1-10.11,0-15.17,2.08-2.03,9.15-9.25,10.73-10.73h1.78c1.64-.1,7.1,0,13.39,0,0,0,9.28,9.15,10.73,10.73Z"/><path class="cls-1" d="m442.2,12c23.82,0,36.77,12.95,36.77,36.98v11.7c0,24.03-12.95,36.98-36.77,36.98h-9.82v60.59h-22.15V12h31.97Zm-9.82,65.19h8.98c10.66,0,15.46-5.64,15.46-17.97v-8.78c0-12.33-4.8-17.97-15.46-17.97h-8.98v44.71Z"/><path class="cls-1" d="m536.84,158.26l-4.8-33.22h-24.44l-4.8,33.22h-22.15l25.28-146.26h28.21l25.28,146.26h-22.57Zm-26.32-53.28h18.59l-8.98-61.64h-.63l-8.98,61.64Z"/><path class="cls-1" d="m634.42,137.36v20.89h-59.13V12h22.15v125.36h36.98Z"/><path class="cls-1" d="m720.3,158.26V56.71h-.42l-18.39,80.65h-13.16l-18.39-80.65h-.42v101.54h-20.89V12h29.04l17.34,78.56h.42l17.13-78.56h29.88v146.26h-22.15Z"/><path class="cls-1" d="m814.53,158.26l-4.81-33.22h-24.44l-4.8,33.22h-22.15l25.28-146.26h28.21l25.28,146.26h-22.57Zm-26.33-53.28h18.59l-8.98-61.64h-.63l-8.98,61.64Z"/><path class="cls-1" d="m424.94,189.69c2.85,0,5.32.52,7.43,1.56,2.1,1.04,3.75,2.52,4.94,4.43s1.79,4.19,1.79,6.82-.6,4.91-1.79,6.82c-1.19,1.91-2.84,3.39-4.94,4.43-2.1,1.04-4.58,1.56-7.43,1.56h-9.75v16.45h-5.1v-42.08h14.85Zm-.76,20.85c3.31,0,5.74-.69,7.27-2.07,1.53-1.38,2.29-3.37,2.29-5.96s-.76-4.63-2.29-5.99c-1.53-1.36-3.95-2.04-7.27-2.04h-8.99v16.07h8.99Z"/><path class="cls-1" d="m471.29,189.69c4.29,0,7.74,1.11,10.33,3.32,2.59,2.21,3.89,5.21,3.89,8.99s-1.31,6.73-3.92,8.83c-2.61,2.1-6.07,3.16-10.36,3.16l-.45.32h-10.33v17.47h-5.1v-42.08h15.94Zm-.06,19.83c3.02,0,5.26-.63,6.73-1.88,1.47-1.25,2.2-3.13,2.2-5.64s-.73-4.39-2.2-5.64c-1.47-1.25-3.71-1.88-6.73-1.88h-10.78v15.05h10.78Zm2.93,1.02l13.9,21.23h-6.06l-12.11-18.43,4.27-2.8Z"/><path class="cls-1" d="m520.7,189.06c3.99,0,7.45.88,10.36,2.65,2.91,1.76,5.16,4.26,6.76,7.49,1.59,3.23,2.39,7.08,2.39,11.54s-.8,8.31-2.39,11.54c-1.59,3.23-3.85,5.73-6.76,7.49-2.91,1.76-6.37,2.65-10.36,2.65s-7.45-.88-10.36-2.65c-2.91-1.76-5.16-4.26-6.76-7.49-1.59-3.23-2.39-7.08-2.39-11.54s.8-8.31,2.39-11.54c1.59-3.23,3.85-5.73,6.76-7.49s6.37-2.65,10.36-2.65Zm0,4.78c-2.89,0-5.4.67-7.52,2.01-2.13,1.34-3.76,3.27-4.91,5.8-1.15,2.53-1.72,5.56-1.72,9.09s.57,6.56,1.72,9.08c1.15,2.53,2.78,4.46,4.91,5.8,2.12,1.34,4.63,2.01,7.52,2.01s5.45-.67,7.55-2.01,3.73-3.27,4.88-5.8c1.15-2.53,1.72-5.56,1.72-9.08s-.57-6.56-1.72-9.09c-1.15-2.53-2.77-4.46-4.88-5.8s-4.62-2.01-7.55-2.01Z"/><path class="cls-1" d="m571.39,189.69c6.59,0,11.76,1.82,15.52,5.45s5.64,8.83,5.64,15.59-1.88,11.95-5.64,15.59-8.94,5.45-15.52,5.45h-13.58v-42.08h13.58Zm.51,37.3c4.8,0,8.55-1.43,11.25-4.3s4.05-6.85,4.05-11.95-1.35-9.09-4.05-11.96c-2.7-2.87-6.45-4.3-11.25-4.3h-8.99v32.52h8.99Z"/><path class="cls-1" d="m642.35,189.69v26.4c0,5.4-1.42,9.47-4.27,12.21s-6.93,4.11-12.24,4.11-9.34-1.37-12.21-4.11-4.3-6.81-4.3-12.21v-26.4h5.1v25.12c0,4.38.92,7.61,2.77,9.69,1.85,2.08,4.73,3.12,8.64,3.12s6.79-1.04,8.64-3.12c1.85-2.08,2.77-5.31,2.77-9.69v-25.12h5.1Z"/><path class="cls-1" d="m695.58,221c-.89,2.38-2.17,4.43-3.83,6.15-1.66,1.72-3.6,3.03-5.83,3.92s-4.67,1.34-7.3,1.34c-4,0-7.45-.88-10.36-2.65-2.91-1.76-5.16-4.26-6.76-7.49-1.59-3.23-2.39-7.08-2.39-11.54s.8-8.31,2.39-11.54c1.59-3.23,3.85-5.73,6.76-7.49s6.32-2.65,10.23-2.65c2.72,0,5.14.37,7.27,1.12,2.12.74,3.94,1.85,5.45,3.32,1.51,1.47,2.71,3.26,3.6,5.39l-5.04,2.36c-.94-2.42-2.29-4.26-4.05-5.51-1.76-1.25-4.05-1.88-6.85-1.88s-5.36.67-7.52,2.01c-2.17,1.34-3.86,3.26-5.07,5.77-1.21,2.51-1.82,5.55-1.82,9.12s.57,6.56,1.72,9.08c1.15,2.53,2.78,4.46,4.91,5.8,2.12,1.34,4.63,2.01,7.52,2.01s5.25-.71,7.33-2.14c2.08-1.42,3.59-3.56,4.53-6.41l5.1,1.91Zm-20.59,10.52l2.68-1.59c2.51.81,4.29,1.9,5.36,3.28,1.06,1.38,1.59,3.01,1.59,4.88,0,2.04-.72,3.78-2.17,5.23-1.45,1.44-3.29,2.17-5.55,2.17-1.32,0-2.48-.17-3.48-.51-1-.34-1.86-.79-2.58-1.34l1.21-3.7c.59.38,1.22.72,1.88,1.02.66.3,1.46.45,2.39.45,1.19,0,2.17-.38,2.93-1.15.77-.76,1.15-1.87,1.15-3.32,0-1.11-.4-2.06-1.21-2.87s-2.21-1.66-4.21-2.55Z"/><path class="cls-1" d="m728.74,189.06c3.99,0,7.45.88,10.36,2.65s5.16,4.26,6.76,7.49c1.59,3.23,2.39,7.08,2.39,11.54s-.8,8.31-2.39,11.54c-1.59,3.23-3.85,5.73-6.76,7.49-2.91,1.76-6.37,2.65-10.36,2.65s-7.45-.88-10.36-2.65c-2.91-1.76-5.16-4.26-6.76-7.49-1.59-3.23-2.39-7.08-2.39-11.54s.8-8.31,2.39-11.54c1.59-3.23,3.85-5.73,6.76-7.49s6.36-2.65,10.36-2.65Zm0,4.78c-2.89,0-5.4.67-7.52,2.01s-3.76,3.27-4.91,5.8c-1.15,2.53-1.72,5.56-1.72,9.09s.57,6.56,1.72,9.08c1.15,2.53,2.78,4.46,4.91,5.8s4.63,2.01,7.52,2.01,5.45-.67,7.55-2.01c2.1-1.34,3.73-3.27,4.88-5.8,1.15-2.53,1.72-5.56,1.72-9.08s-.57-6.56-1.72-9.09c-1.15-2.53-2.77-4.46-4.88-5.8-2.1-1.34-4.62-2.01-7.55-2.01Zm11.48-17.98c-.13,1.87-.48,3.44-1.05,4.72s-1.36,2.23-2.36,2.87c-1,.64-2.24.96-3.73.96-1.19,0-2.2-.22-3.03-.67-.83-.45-1.54-.95-2.13-1.5-.6-.55-1.18-1.05-1.75-1.5s-1.2-.67-1.88-.67c-.94,0-1.64.39-2.1,1.18-.47.79-.81,1.86-1.02,3.22h-4.02c.21-2.81.9-4.93,2.07-6.38,1.17-1.44,2.88-2.17,5.13-2.17,1.15,0,2.13.22,2.96.67s1.55.95,2.17,1.5c.62.55,1.2,1.05,1.75,1.5s1.15.67,1.79.67c.98,0,1.7-.39,2.17-1.18.47-.79.81-1.86,1.02-3.22h4.02Z"/><path class="cls-1" d="m765.84,231.77v-42.08h29.52v4.78h-24.42v13.58h19v4.78h-19v14.15h25.38v4.78h-30.47Z"/><path class="cls-1" d="m826.41,189.06c3.7,0,6.88.75,9.56,2.26,2.68,1.51,4.91,3.73,6.69,6.66l-4.27,3.32c-1.57-2.72-3.35-4.64-5.32-5.77-1.98-1.13-4.37-1.69-7.17-1.69-2.25,0-4.11.32-5.58.96-1.47.64-2.54,1.48-3.22,2.52-.68,1.04-1.02,2.22-1.02,3.54,0,1.49.47,2.8,1.4,3.92.93,1.13,2.8,2.01,5.61,2.65l9.12,2.04c4.04.89,6.85,2.24,8.45,4.05s2.39,4.05,2.39,6.73c0,2.38-.67,4.5-2.01,6.34s-3.22,3.28-5.64,4.3-5.27,1.53-8.54,1.53c-3.06,0-5.75-.41-8.07-1.24-2.32-.83-4.3-1.94-5.96-3.35-1.66-1.4-3.02-2.97-4.08-4.72l4.46-3.63c.81,1.62,1.85,3.04,3.12,4.27,1.28,1.23,2.82,2.19,4.62,2.87,1.81.68,3.88,1.02,6.22,1.02,2.17,0,4.05-.26,5.64-.8,1.59-.53,2.82-1.32,3.67-2.36.85-1.04,1.28-2.31,1.28-3.79,0-1.36-.45-2.58-1.34-3.67s-2.57-1.9-5.04-2.45l-9.88-2.23c-2.59-.59-4.69-1.41-6.28-2.46-1.59-1.04-2.74-2.27-3.44-3.7-.7-1.42-1.05-2.96-1.05-4.62,0-2.25.63-4.32,1.88-6.22,1.25-1.89,3.06-3.41,5.42-4.56,2.36-1.15,5.15-1.72,8.38-1.72Z"/></svg>