<?xml version="1.0" encoding="UTF-8"?><svg id="Camada_1" xmlns="http://www.w3.org/2000/svg" viewBox="0 0 383 462"><path d="m381.86,161.77c-34.31-23.88-90.04-20.37-110.73-20.01,62.86-17.38,106.02-6.61,110.73-5.21v-6.2s0,0,0,0h0c-43.19-10.04-105.1,4.34-110.38,6.87,21.48-19.58,55.35-47.63,92.04-55.99.24-.05.47-.11.7-.16,3.85,1.26,15.91,7.94,17.63,8.59v-6.12c-1.71-.64-3.77-1.28-5.37-1.9-1.82-.7-3.58-1.38-5.38-2.05,3.47-.7,7.45-1.23,10.75-1.63v-6.33c-5.56,1.38-12.12,4.42-19.15,6.02-23.13,5.27-47.57,19.96-72.63,39.15-16.6,12.71-29.81,25.65-37.73,33.97,7.41-22.9,25.91-50.7,51.28-72.84,25.62-22.35,55.34-35.21,78.23-38.87v-6.31c-23.54,3.77-54.53,19.62-80.65,42.4-22.19,19.36-39.25,43.63-48.46,64.34,6.24-59.07,37.58-101.73,71.23-123.88,27.46-6.57,46.16.85,57.88,5.77v-6.07c-10.72-4.5-25.96-8.87-48.66-5.3,4.91-3.18,15.22-8.52,20.09-10.49h-12.08c-96.36,45.17-93.3,160.9-93.26,164.51-17.41-41.8-15.28-81.75-10.12-106.62,6.51-31.36,25.25-54.5,28.96-57.89h-8.33c-5.36,4.89-17.97,26.93-24.24,57.14-3.63,17.49-4.66,35.29-3.07,52.89,1.68,18.55,6.31,39.13,13.76,56.77-15.21-15.91-34.53-46.49-43.45-92.69-4.77-24.7-4.47-52.4.83-74.11h-6.25c-5.42,22.21-3.06,49.59,1.81,74.81,6.66,34.53,19.07,59.28,31.35,76.44-17.62-15.7-32.56-30.89-43.96-44.73-.04-.05-.08-.1-.12-.15-.28-.34-.56-.68-.83-1.02-.23-.28-.46-.56-.69-.85-.19-.23-.38-.47-.56-.7-.44-.55-.88-1.1-1.31-1.65-22.28-28.35-36.12-60.61-50.86-102.15h0s0,0,0,0h-6.15c14.88,41.92,31.56,75.74,54.11,104.43.49.63,1,1.26,1.5,1.9.02.02.03.04.05.06,6.57,8.19,14.25,16.72,22.99,25.55.26.27.53.53.79.8.24.25.49.49.73.74,16.11,16.14,32.64,32.52,43.88,41.66.11.11.23.21.36.29,4.02,3.26,7.34,5.87,9.7,7.7-.35-.03-.73.05-1.07-.08-43-17.7-105.05-48.21-163.11-134.72-3.62-14.7-3.16-32.02-3.88-48.32h-6.35c.58,13.01,1.04,27.64,3.45,39.71-7.55-11.92-13.74-25.86-20.57-39.71h-8.65c56.18,112.8,134.17,158.1,185.1,181.35-69.33-14.35-142.75-40.01-166.39-53.33C45.99,106.19-.31,30.44-.31,30.44v11.29c.18.53,40.85,63.26,64.62,82.87C37.86,113.35,12.27,97.41-.31,89.08v8.42c72.07,48.23,223.94,86.61,260.36,88.92-74.71,14.03-183.7.05-260.36-32.21v6.13c130.29,53.09,250.76,32.36,271.51,27.46C227.74,211.61,110.27,233.5-.31,208.55v8.92c142.01,22.27,244.38-12.12,267.4-23.38-11.95,12.51-29.37,27.45-45.19,41.72h6.92c20.92-18.87,38.22-35.89,51.47-50.47.31-.19.55-.46.7-.78.79-.87,1.56-1.73,2.31-2.57-5.81,12.7-15.7,32.95-28.45,53.81h6.39c13.68-22.38,21.63-43.56,27.96-57.89.02,1.16.02,2.31.03,3.46.02,18.04-1.51,36.68-4.55,54.43-.07.41-.14-.41-.22,0h0s0,0,0,0h3.62s0,0,0,0h0c.09-.52,2.85.52,2.94,0,3.06-17.2,1.91-35.52,1.88-54.01,0-5.32-.13-10.64-.39-15.95l-.15-3.89c12.86,19.58,28.86,51.48,35.77,73.85h6.19c-7.71-24.98-28.47-60.6-41.21-79.35,6.49,4.51,14.32,7.95,22.49,14.57,13.74,11.14,30.49,26.53,42.46,43.45,0,0,1.33,4.33.33,21.34h6.34c-.2-1.88-1.33-12.27-2.25-16.59,1.83,3.25,6.52,13.29,7.87,16.59h5.66c-4.53-11.15-15.69-25.84-26.55-38.03-8.65-9.7-19.25-19.66-31.51-29.61-14.29-11.59-27.58-18.19-34.59-22.67,25.13.6,70.4,2.41,98.52,21.98v-5.7Zm-93.11-5.37s.08,10.99,0,15.17c-.38.41-6.76,6.35-10.73,10.73h-15.17c-2.31-2.44-3.28-3.37-10.73-10.73,0-5.43-.1-10.11,0-15.17,2.08-2.03,9.15-9.25,10.73-10.73h1.78c1.64-.1,7.1,0,13.39,0,0,0,9.28,9.15,10.73,10.73Z"/><path d="m36.65,260.38c20.58,0,31.77,11.19,31.77,31.95v10.11c0,20.76-11.19,31.96-31.77,31.96h-8.49v52.36H9.02v-126.38h27.62Zm-8.49,56.33h7.76c9.21,0,13.36-4.87,13.36-15.53v-7.58c0-10.65-4.15-15.53-13.36-15.53h-7.76v38.64Z"/><path d="m118.43,386.75l-4.15-28.71h-21.12l-4.15,28.71h-19.14l21.85-126.38h24.37l21.85,126.38h-19.5Zm-22.75-46.04h16.07l-7.76-53.26h-.54l-7.76,53.26Z"/><path d="m202.75,368.7v18.05h-51.09v-126.38h19.14v108.32h31.96Z"/><path d="m276.95,386.75v-87.74h-.36l-15.89,69.69h-11.37l-15.89-69.69h-.36v87.74h-18.05v-126.38h25.1l14.98,67.88h.36l14.8-67.88h25.82v126.38h-19.14Z"/><path d="m358.38,386.75l-4.15-28.71h-21.12l-4.15,28.71h-19.14l21.85-126.38h24.37l21.85,126.38h-19.5Zm-22.75-46.04h16.07l-7.76-53.26h-.54l-7.76,53.26Z"/><path d="m21.74,413.92c2.46,0,4.6.45,6.42,1.35,1.82.9,3.24,2.18,4.27,3.83,1.03,1.65,1.54,3.62,1.54,5.89s-.52,4.24-1.54,5.89c-1.03,1.65-2.45,2.93-4.27,3.83-1.82.9-3.96,1.35-6.42,1.35h-8.43v14.21h-4.41v-36.36h12.84Zm-.66,18.01c2.86,0,4.96-.6,6.28-1.79,1.32-1.19,1.98-2.91,1.98-5.15s-.66-4-1.98-5.18c-1.32-1.17-3.42-1.76-6.28-1.76h-7.77v13.88h7.77Z"/><path d="m61.79,413.92c3.71,0,6.68.96,8.92,2.86,2.24,1.91,3.36,4.5,3.36,7.77s-1.13,5.81-3.39,7.63c-2.26,1.82-5.24,2.73-8.95,2.73l-.38.28h-8.92v15.09h-4.41v-36.36h13.77Zm-.06,17.13c2.61,0,4.55-.54,5.81-1.62,1.27-1.08,1.9-2.71,1.9-4.88s-.63-3.79-1.9-4.88c-1.27-1.08-3.21-1.62-5.81-1.62h-9.31v13h9.31Zm2.54.88l12.01,18.34h-5.23l-10.47-15.92,3.69-2.42Z"/><path d="m104.48,413.37c3.45,0,6.44.76,8.95,2.29,2.52,1.52,4.46,3.68,5.84,6.47,1.38,2.79,2.07,6.12,2.07,9.97s-.69,7.18-2.07,9.97c-1.38,2.79-3.32,4.95-5.84,6.47-2.52,1.52-5.5,2.29-8.95,2.29s-6.44-.76-8.95-2.29c-2.52-1.52-4.46-3.68-5.84-6.47s-2.07-6.12-2.07-9.97.69-7.18,2.07-9.97c1.38-2.79,3.32-4.95,5.84-6.47,2.52-1.52,5.5-2.29,8.95-2.29Zm0,4.13c-2.5,0-4.66.58-6.5,1.74-1.84,1.16-3.25,2.83-4.24,5.01-.99,2.19-1.49,4.8-1.49,7.85s.5,5.67,1.49,7.85c.99,2.19,2.41,3.86,4.24,5.01,1.84,1.16,4,1.74,6.5,1.74s4.71-.58,6.53-1.74c1.82-1.16,3.22-2.83,4.21-5.01.99-2.18,1.49-4.8,1.49-7.85s-.5-5.67-1.49-7.85c-.99-2.18-2.4-3.86-4.21-5.01-1.82-1.16-3.99-1.74-6.53-1.74Z"/><path d="m148.28,413.92c5.69,0,10.16,1.57,13.41,4.71,3.25,3.14,4.88,7.63,4.88,13.47s-1.63,10.33-4.88,13.47c-3.25,3.14-7.72,4.71-13.41,4.71h-11.73v-36.36h11.73Zm.44,32.23c4.15,0,7.39-1.24,9.72-3.72,2.33-2.48,3.5-5.92,3.5-10.33s-1.17-7.85-3.5-10.33c-2.33-2.48-5.57-3.72-9.72-3.72h-7.77v28.1h7.77Z"/><path d="m209.59,413.92v22.81c0,4.66-1.23,8.18-3.69,10.55-2.46,2.37-5.99,3.55-10.58,3.55s-8.07-1.18-10.55-3.55c-2.48-2.37-3.72-5.89-3.72-10.55v-22.81h4.41v21.71c0,3.78.8,6.58,2.4,8.37,1.6,1.8,4.08,2.7,7.46,2.7s5.87-.9,7.46-2.7c1.6-1.8,2.4-4.59,2.4-8.37v-21.71h4.41Z"/><path d="m255.59,440.97c-.77,2.06-1.87,3.83-3.31,5.32s-3.11,2.62-5.04,3.39c-1.93.77-4.03,1.16-6.31,1.16-3.45,0-6.44-.76-8.95-2.29-2.52-1.52-4.46-3.68-5.84-6.47-1.38-2.79-2.07-6.12-2.07-9.97s.69-7.18,2.07-9.97c1.38-2.79,3.32-4.95,5.84-6.47,2.52-1.52,5.46-2.29,8.84-2.29,2.35,0,4.44.32,6.28.96s3.41,1.6,4.71,2.86c1.3,1.27,2.34,2.82,3.11,4.66l-4.35,2.04c-.81-2.09-1.97-3.68-3.5-4.76-1.52-1.08-3.5-1.62-5.92-1.62s-4.63.58-6.5,1.74c-1.87,1.16-3.33,2.82-4.38,4.99-1.05,2.17-1.57,4.79-1.57,7.88s.5,5.67,1.49,7.85c.99,2.19,2.41,3.86,4.24,5.01,1.84,1.16,4,1.74,6.5,1.74s4.54-.61,6.34-1.85c1.8-1.23,3.1-3.08,3.91-5.54l4.41,1.65Zm-17.79,9.09l2.31-1.38c2.17.7,3.71,1.64,4.63,2.84.92,1.19,1.38,2.6,1.38,4.21,0,1.76-.62,3.27-1.87,4.52-1.25,1.25-2.85,1.87-4.79,1.87-1.14,0-2.14-.15-3-.44-.86-.29-1.61-.68-2.23-1.16l1.05-3.2c.51.33,1.05.62,1.62.88.57.26,1.26.39,2.07.39,1.03,0,1.87-.33,2.53-.99s.99-1.62.99-2.87c0-.96-.35-1.78-1.05-2.48s-1.91-1.43-3.64-2.2Z"/><path d="m284.24,413.37c3.45,0,6.44.76,8.95,2.29,2.52,1.52,4.46,3.68,5.84,6.47,1.38,2.79,2.07,6.12,2.07,9.97s-.69,7.18-2.07,9.97-3.32,4.95-5.84,6.47c-2.52,1.52-5.5,2.29-8.95,2.29s-6.44-.76-8.95-2.29c-2.52-1.52-4.46-3.68-5.84-6.47-1.38-2.79-2.07-6.12-2.07-9.97s.69-7.18,2.07-9.97c1.38-2.79,3.32-4.95,5.84-6.47,2.52-1.52,5.5-2.29,8.95-2.29Zm0,4.13c-2.5,0-4.66.58-6.5,1.74-1.84,1.16-3.25,2.83-4.24,5.01-.99,2.19-1.49,4.8-1.49,7.85s.5,5.67,1.49,7.85c.99,2.19,2.41,3.86,4.24,5.01,1.84,1.16,4,1.74,6.5,1.74s4.71-.58,6.53-1.74c1.82-1.16,3.22-2.83,4.21-5.01.99-2.18,1.49-4.8,1.49-7.85s-.5-5.67-1.49-7.85c-.99-2.18-2.4-3.86-4.21-5.01-1.82-1.16-3.99-1.74-6.53-1.74Zm9.92-15.54c-.11,1.62-.41,2.98-.91,4.08-.5,1.1-1.18,1.93-2.04,2.48-.86.55-1.94.83-3.22.83-1.03,0-1.9-.19-2.62-.58-.72-.39-1.33-.82-1.85-1.29-.51-.48-1.02-.91-1.51-1.29-.5-.39-1.04-.58-1.63-.58-.81,0-1.41.34-1.82,1.02-.41.68-.7,1.61-.88,2.78h-3.47c.18-2.42.78-4.26,1.79-5.51,1.01-1.25,2.49-1.87,4.43-1.87.99,0,1.85.19,2.56.58s1.34.82,1.87,1.29c.53.48,1.04.91,1.51,1.29.48.39.99.58,1.54.58.84,0,1.47-.34,1.87-1.02.4-.68.7-1.61.88-2.78h3.47Z"/><path d="m316.3,450.28v-36.36h25.51v4.13h-21.1v11.73h16.42v4.13h-16.42v12.23h21.93v4.13h-26.33Z"/><path d="m368.64,413.37c3.2,0,5.95.65,8.26,1.96,2.31,1.3,4.24,3.22,5.78,5.76l-3.69,2.87c-1.36-2.35-2.89-4.01-4.6-4.99s-3.77-1.46-6.2-1.46c-1.95,0-3.55.28-4.82.83-1.27.55-2.2,1.28-2.78,2.18-.59.9-.88,1.92-.88,3.06,0,1.29.4,2.42,1.21,3.39.81.97,2.42,1.74,4.85,2.29l7.88,1.76c3.49.77,5.92,1.94,7.3,3.5,1.38,1.56,2.07,3.5,2.07,5.81,0,2.06-.58,3.88-1.74,5.48-1.16,1.6-2.78,2.84-4.88,3.72-2.09.88-4.55,1.32-7.38,1.32-2.64,0-4.97-.36-6.97-1.07-2-.72-3.72-1.68-5.15-2.89-1.43-1.21-2.61-2.57-3.53-4.08l3.86-3.14c.7,1.4,1.6,2.63,2.7,3.69,1.1,1.07,2.43,1.89,3.99,2.48,1.56.59,3.35.88,5.37.88,1.87,0,3.5-.23,4.88-.69,1.38-.46,2.43-1.14,3.17-2.04.73-.9,1.1-1.99,1.1-3.28,0-1.17-.39-2.23-1.16-3.17-.77-.94-2.22-1.64-4.35-2.12l-8.54-1.93c-2.24-.51-4.05-1.22-5.43-2.12-1.38-.9-2.37-1.96-2.98-3.2-.61-1.23-.91-2.56-.91-3.99,0-1.95.54-3.74,1.62-5.37,1.08-1.63,2.64-2.95,4.68-3.94,2.04-.99,4.45-1.49,7.24-1.49Z"/></svg>