<?xml version="1.0" encoding="UTF-8" standalone="no"?>
<!-- Created with Inkscape (http://www.inkscape.org/) -->

<svg
   width="74.612488mm"
   height="74.612679mm"
   viewBox="0 0 74.61249 74.61268"
   version="1.1"
   id="svg5"
   xml:space="preserve"
   inkscape:version="1.2.1 (9c6d41e410, 2022-07-14)"
   sodipodi:docname="palma-services.svg"
   xmlns:inkscape="http://www.inkscape.org/namespaces/inkscape"
   xmlns:sodipodi="http://sodipodi.sourceforge.net/DTD/sodipodi-0.dtd"
   xmlns="http://www.w3.org/2000/svg"
   xmlns:svg="http://www.w3.org/2000/svg"><sodipodi:namedview
     id="namedview7"
     pagecolor="#ffffff"
     bordercolor="#000000"
     borderopacity="0.25"
     inkscape:showpageshadow="2"
     inkscape:pageopacity="0.0"
     inkscape:pagecheckerboard="0"
     inkscape:deskcolor="#d1d1d1"
     inkscape:document-units="mm"
     showgrid="false"
     inkscape:zoom="1.5376122"
     inkscape:cx="-38.371183"
     inkscape:cy="137.87611"
     inkscape:window-width="2560"
     inkscape:window-height="1017"
     inkscape:window-x="-8"
     inkscape:window-y="-8"
     inkscape:window-maximized="1"
     inkscape:current-layer="layer1" /><defs
     id="defs2"><style
       id="style2019">.cls-1{fill:#fff;}</style><style
       id="style2803">.cls-1{fill:#fff;}</style><style
       id="style5765">.cls-1{fill:#fff;}.cls-2{fill:#8cc63f;}</style><style
       id="style5823">.cls-1{fill:#7fb53a;}</style></defs><g
     inkscape:label="Camada 1"
     inkscape:groupmode="layer"
     id="layer1"
     transform="translate(39.213576,-78.594454)"><ellipse
       style="fill:none;fill-opacity:1;stroke:#000000;stroke-width:0.529167;stroke-dasharray:none;stroke-opacity:1"
       id="path10889"
       cx="-1.9073325"
       cy="115.90073"
       rx="32.566006"
       ry="32.56601" /><g
       id="g15344"
       transform="translate(-0.37567114,-0.7180899)"><ellipse
         style="fill:#ffffff;fill-opacity:1;stroke:none;stroke-width:0.98407;stroke-opacity:1"
         id="path12343"
         cx="-1.5316612"
         cy="83.545876"
         rx="4.2333331"
         ry="4.2333312" /><path
         id="path6308"
         style="fill:#81af43;fill-opacity:1;stroke-width:0.0580232"
         d="m -1.5316598,79.312546 a 4.2333385,4.2333465 0 0 0 -0.5880822,0.04609 c -0.046347,0.151244 -0.087532,0.307944 -0.1211365,0.469825 -0.2297858,1.107516 -0.3246398,2.886578 0.450664,4.748023 -0.0013,-0.115815 -0.072147,-2.822938 1.49264875,-5.07974 A 4.2333385,4.2333465 0 0 0 -1.5316598,79.312546 Z m -0.7738047,0.07361 a 4.2333385,4.2333465 0 0 0 -1.6324658,0.680135 c 0.02128,0.163415 0.046706,0.32545 0.077419,0.484488 0.3972263,2.057388 1.2575835,3.41917 1.9349173,4.127677 -0.3317643,-0.785547 -0.5379458,-1.702029 -0.612759,-2.528101 -0.070807,-0.783767 -0.02495,-1.576433 0.136698,-2.355302 0.029165,-0.14051 0.061557,-0.276779 0.096191,-0.408897 z m 2.2238155,0.183085 c -0.7554745,1.013868 -1.3276058,2.331636 -1.494807,3.914428 0.4101407,-0.922262 1.16986325,-2.003072 2.15803,-2.865215 0.1619725,-0.141261 0.328239,-0.276296 0.4971395,-0.404969 A 4.2333385,4.2333465 0 0 0 -0.081649,79.569241 Z m -4.0111205,0.611921 a 4.2333385,4.2333465 0 0 0 -1.0181768,1.111879 c 0.1181455,0.172127 0.2416653,0.340811 0.371805,0.506407 0.019152,0.02449 0.038756,0.049 0.058349,0.07349 0.00802,0.01024 0.016453,0.02091 0.02492,0.03115 0.010243,0.01291 0.020493,0.0254 0.030736,0.03787 0.012025,0.01514 0.024502,0.03028 0.036969,0.04542 0.00177,0.0022 0.00359,0.0044 0.00535,0.0067 0.5076662,0.616326 1.1729895,1.292764 1.957645,1.991919 -0.546854,-0.76417 -1.0995145,-1.866336 -1.3960988,-3.404033 -0.025567,-0.132409 -0.049405,-0.266224 -0.071483,-0.400771 z m 5.3059335,0.142126 c -0.1776033,0.130254 -0.35278975,0.269765 -0.5238265,0.418971 -1.1297795,0.985943 -1.9536215,2.223921 -2.2836045,3.243708 0.3526945,-0.370508 0.94096725,-0.946736 1.68020075,-1.51274 0.6520755,-0.499336 1.29469155,-0.93006 1.92178405,-1.248849 A 4.2333385,4.2333465 0 0 0 1.213164,80.323288 Z m 0.8736825,1.026394 C 0.95914225,81.90022 -0.04002575,82.74274 -0.74193325,83.382562 -0.5645745,83.297582 1.0476197,82.912583 2.6545997,82.920293 A 4.2333385,4.2333465 0 0 0 2.0868465,81.349682 Z m -7.2918838,0.100328 a 4.2333385,4.2333465 0 0 0 -0.4877547,1.331366 c 1.6110355,1.410976 3.141291,2.127538 4.3394187,2.620723 0.015142,0.0057 0.032088,0.0022 0.047676,0.0036 -0.1050955,-0.08149 -0.2529647,-0.197725 -0.431984,-0.342903 -0.00582,-0.0036 -0.011113,-0.008 -0.016012,-0.0129 C -2.254234,84.64285 -2.990358,83.9134 -3.7077705,83.194651 c -0.01069,-0.01112 -0.021815,-0.02182 -0.032506,-0.03295 -0.011578,-0.01202 -0.02362,-0.0236 -0.035198,-0.03562 -0.389211,-0.393221 -0.7312085,-0.7731 -1.0237843,-1.137818 -8.75e-4,-8.75e-4 -0.00135,-0.0018 -0.00223,-0.0026 -0.022267,-0.0285 -0.044983,-0.05656 -0.066805,-0.08462 -0.1156798,-0.147177 -0.2277345,-0.297522 -0.336754,-0.450965 z m -0.5234355,1.5719 a 4.2333385,4.2333465 0 0 0 -0.036522,0.523977 4.2333385,4.2333465 0 0 0 0.080238,0.818575 c 1.1575308,0.356947 2.4476123,0.701604 3.7074995,0.962377 -1.060965,-0.48434 -2.385633,-1.183642 -3.7512155,-2.304929 z m 8.0713555,0.126925 c -0.8189332,-0.0014 -1.87571845,0.0973 -3.1004077,0.435912 0.6579215,-0.01145 2.1114107,-0.09412 3.445167,0.246562 a 4.2333385,4.2333465 0 0 0 0.01403,-0.285422 4.2333385,4.2333465 0 0 0 -0.0185,-0.390575 c -0.1083385,-0.0039 -0.2217798,-0.0063 -0.3402915,-0.0065 z m -2.55577295,0.602474 c 0.31217025,0.199505 0.90399,0.493415 1.54035425,1.009545 0.3188047,0.258737 0.6115792,0.51755 0.8774007,0.774196 A 4.2333385,4.2333465 0 0 0 2.6639245,84.07784 C 1.630774,83.809308 0.51779175,83.768755 -0.21289025,83.751309 Z m -0.74948725,0.0057 c -0.037439,2.33e-4 -0.0663583,7.5e-4 -0.0846163,0.002 h -0.079248 c -0.07036,0.06591 -0.385203,0.38743 -0.4778297,0.477833 -0.00447,0.225332 0,0.433737 0,0.675547 0.331764,0.327755 0.374961,0.369172 0.4778297,0.47783 h 0.67554655 c 0.1767925,-0.19505 0.46090775,-0.459573 0.47782925,-0.47783 0.0035875,-0.186145 0,-0.675547 0,-0.675547 -0.06457125,-0.07036 -0.47782925,-0.477833 -0.47782925,-0.477833 -0.21008,0 -0.399357,-0.0025 -0.51168225,-0.002 z m 1.18366025,0.48194 c 0.3678385,0.541365 0.88510575,1.398411 1.29748095,2.237493 A 4.2333385,4.2333465 0 0 0 2.11827,85.680876 C 1.8139097,85.38447 1.504221,85.11591 1.2228187,84.887757 0.85899125,84.592955 0.51029575,84.439765 0.22128275,84.238925 Z m -0.0333758,0.244942 0.006658,0.17322 c 0.0115775,0.236465 0.0173875,0.473388 0.0173875,0.7103 0.001125,0.696339 0.0374742,1.387136 -0.033611,2.047061 A 4.2333385,4.2333465 0 0 0 1.3459897,86.644268 C 1.0029775,85.871448 0.565397,85.05861 0.187911,84.483867 Z m -5.81245445,0.123985 a 4.2333385,4.2333465 0 0 0 0.5099432,1.184831 c 1.3882748,0.06334 2.7167035,-0.0037 3.863657,-0.219125 -0.7120695,-0.04517 -2.4153292,-0.400106 -4.3736002,-0.965706 z m 5.67171095,0.586735 c -0.2809395,0.635999 -0.63365925,1.575061 -1.23910095,2.567978 a 4.2333385,4.2333465 0 0 0 1.0769162,-0.232773 c 0.1092675,-0.716564 0.16433175,-1.459564 0.16353425,-2.18109 -4.75e-4,-0.05121 -4.75e-4,-0.102432 -0.00135,-0.15409 z m -0.262722,0.181705 c -0.0333995,0.03741 -0.0676968,0.0757 -0.1028765,0.114449 -0.00668,0.01425 -0.017375,0.02626 -0.0311825,0.03472 -0.562867,0.619365 -1.29161075,1.33853 -2.16609625,2.132847 a 4.2333385,4.2333465 0 0 0 0.9840553,0.120927 4.2333385,4.2333465 0 0 0 0.135649,-0.0067 h -0.086505 c 0.56778445,-0.928942 1.0082252,-1.830731 1.26695695,-2.396287 z M -0.7544068,85.63505 c -0.4628135,0.10929 -2.0397136,0.395362 -4.227517,0.356722 a 4.2333385,4.2333465 0 0 0 0.6568959,0.728922 c 1.5509965,-0.268864 2.8132218,-0.670697 3.5706211,-1.085644 z m -0.1830242,0.280063 c -0.4475833,0.21893 -1.5689988,0.634155 -3.2166263,0.950055 a 4.2333385,4.2333465 0 0 0 1.3994278,0.733239 c 0.6498625,-0.581599 1.3334192,-1.176844 1.8171985,-1.683294 z" /></g><g
       id="g15348"
       transform="translate(5.1126092,1.5456963)"><ellipse
         style="fill:#ffffff;fill-opacity:1;stroke:none;stroke-width:0.98407;stroke-opacity:1"
         id="path12343-6"
         cx="26.052969"
         cy="114.35487"
         rx="4.2333331"
         ry="4.2333312" /><path
         id="path6308-6"
         style="fill:#60398e;fill-opacity:1;stroke-width:0.0580232"
         d="m 26.05297,110.12154 a 4.2333385,4.2333465 0 0 0 -0.588082,0.0461 c -0.04635,0.15124 -0.08753,0.30794 -0.121137,0.46982 -0.229785,1.10752 -0.324639,2.88658 0.450664,4.74803 -0.0013,-0.11582 -0.07215,-2.82294 1.492649,-5.07974 a 4.2333385,4.2333465 0 0 0 -1.234094,-0.1842 z m -0.773804,0.0736 a 4.2333385,4.2333465 0 0 0 -1.632466,0.68013 c 0.02128,0.16342 0.04671,0.32545 0.07742,0.48449 0.397226,2.05739 1.257583,3.41917 1.934917,4.12768 -0.331764,-0.78555 -0.537946,-1.70203 -0.612759,-2.5281 -0.07081,-0.78377 -0.02495,-1.57643 0.136698,-2.3553 0.02917,-0.14051 0.06156,-0.27678 0.09619,-0.4089 z m 2.223815,0.18308 c -0.755475,1.01387 -1.327606,2.33164 -1.494807,3.91443 0.410141,-0.92226 1.169863,-2.00307 2.15803,-2.86521 0.161973,-0.14126 0.328239,-0.2763 0.497139,-0.40497 a 4.2333385,4.2333465 0 0 0 -1.160362,-0.64425 z m -4.01112,0.61193 a 4.2333385,4.2333465 0 0 0 -1.018177,1.11187 c 0.118145,0.17213 0.241665,0.34082 0.371805,0.50641 0.01915,0.0245 0.03876,0.049 0.05835,0.0735 0.008,0.0102 0.01645,0.0209 0.02492,0.0312 0.01024,0.0129 0.02049,0.0254 0.03074,0.0379 0.01203,0.0151 0.0245,0.0303 0.03697,0.0454 0.0018,0.002 0.0036,0.004 0.0053,0.007 0.507666,0.61633 1.172989,1.29276 1.957645,1.99192 -0.546854,-0.76417 -1.099515,-1.86634 -1.396099,-3.40403 -0.02557,-0.13241 -0.04941,-0.26623 -0.07148,-0.40077 z m 5.305933,0.14212 c -0.177603,0.13026 -0.35279,0.26977 -0.523827,0.41897 -1.129779,0.98595 -1.953621,2.22392 -2.283604,3.24371 0.352694,-0.37051 0.940967,-0.94674 1.680201,-1.51274 0.652075,-0.49934 1.294691,-0.93006 1.921784,-1.24885 a 4.2333385,4.2333465 0 0 0 -0.794554,-0.90109 z m 0.873682,1.0264 c -1.127704,0.55053 -2.126872,1.39305 -2.828779,2.03287 0.177359,-0.085 1.789553,-0.46997 3.396533,-0.46226 a 4.2333385,4.2333465 0 0 0 -0.567754,-1.57061 z m -7.291883,0.10032 a 4.2333385,4.2333465 0 0 0 -0.487755,1.33137 c 1.611035,1.41098 3.141291,2.12754 4.339419,2.62072 0.01514,0.006 0.03209,0.002 0.04768,0.004 -0.105096,-0.0815 -0.252965,-0.19772 -0.431984,-0.3429 -0.0058,-0.004 -0.01111,-0.008 -0.01601,-0.0129 -0.500541,-0.40705 -1.236665,-1.1365 -1.954077,-1.85525 -0.01069,-0.0111 -0.02182,-0.0218 -0.03251,-0.0329 -0.01158,-0.012 -0.02362,-0.0236 -0.0352,-0.0356 -0.389211,-0.39322 -0.731208,-0.7731 -1.023784,-1.13781 -8.75e-4,-8.8e-4 -0.0014,-0.002 -0.0022,-0.003 -0.02227,-0.0285 -0.04498,-0.0566 -0.06681,-0.0846 -0.11568,-0.14718 -0.227734,-0.29753 -0.336754,-0.45097 z m -0.523436,1.5719 a 4.2333385,4.2333465 0 0 0 -0.03652,0.52398 4.2333385,4.2333465 0 0 0 0.08024,0.81858 c 1.157531,0.35694 2.447612,0.7016 3.7075,0.96237 -1.060965,-0.48434 -2.385633,-1.18364 -3.751216,-2.30493 z m 8.071356,0.12693 c -0.818934,-0.001 -1.875719,0.0973 -3.100408,0.43591 0.657921,-0.0114 2.111411,-0.0941 3.445167,0.24656 a 4.2333385,4.2333465 0 0 0 0.01403,-0.28542 4.2333385,4.2333465 0 0 0 -0.0185,-0.39057 c -0.108339,-0.004 -0.22178,-0.006 -0.340292,-0.007 z m -2.555773,0.60247 c 0.31217,0.19951 0.90399,0.49342 1.540354,1.00955 0.318805,0.25873 0.611579,0.51755 0.877401,0.77419 a 4.2333385,4.2333465 0 0 0 0.459059,-1.45721 c -1.03315,-0.26853 -2.146132,-0.30908 -2.876814,-0.32653 z m -0.749487,0.006 c -0.03744,2.4e-4 -0.06636,7.5e-4 -0.08462,0.002 h -0.07925 c -0.07036,0.0659 -0.385203,0.38743 -0.47783,0.47784 -0.0045,0.22533 0,0.43373 0,0.67554 0.331764,0.32776 0.374961,0.36917 0.47783,0.47783 h 0.675547 c 0.176792,-0.19505 0.460908,-0.45957 0.477829,-0.47783 0.0036,-0.18614 0,-0.67554 0,-0.67554 -0.06457,-0.0704 -0.477829,-0.47784 -0.477829,-0.47784 -0.21008,0 -0.399357,-0.002 -0.511682,-0.002 z m 1.18366,0.48194 c 0.367838,0.54137 0.885106,1.39841 1.297481,2.2375 a 4.2333385,4.2333465 0 0 0 0.599506,-0.79557 c -0.30436,-0.29641 -0.614049,-0.56497 -0.895451,-0.79312 -0.363828,-0.2948 -0.712523,-0.44799 -1.001536,-0.64883 z m -0.03338,0.24494 0.0067,0.17322 c 0.01158,0.23647 0.01739,0.47339 0.01739,0.7103 0.0011,0.69634 0.03748,1.38714 -0.03361,2.04707 a 4.2333385,4.2333465 0 0 0 1.167649,-0.77021 c -0.343013,-0.77282 -0.780593,-1.58566 -1.158079,-2.1604 z m -5.812454,0.12399 a 4.2333385,4.2333465 0 0 0 0.509943,1.18483 c 1.388275,0.0633 2.716703,-0.004 3.863657,-0.21912 -0.71207,-0.0452 -2.415329,-0.40011 -4.3736,-0.96571 z m 5.67171,0.58673 c -0.280939,0.636 -0.633659,1.57507 -1.2391,2.56798 a 4.2333385,4.2333465 0 0 0 1.076916,-0.23277 c 0.109267,-0.71656 0.164331,-1.45956 0.163534,-2.18109 -4.75e-4,-0.0512 -4.75e-4,-0.10243 -0.0014,-0.15409 z m -0.262722,0.18171 c -0.0334,0.0374 -0.0677,0.0757 -0.102876,0.11445 -0.0067,0.0142 -0.01738,0.0263 -0.03118,0.0347 -0.562867,0.61936 -1.29161,1.33853 -2.166096,2.13284 a 4.2333385,4.2333465 0 0 0 0.984056,0.12093 4.2333385,4.2333465 0 0 0 0.135649,-0.007 h -0.08651 c 0.567785,-0.92894 1.008226,-1.83073 1.266957,-2.39629 z m -0.538848,0.25873 c -0.462813,0.10929 -2.039713,0.39537 -4.227517,0.35673 a 4.2333385,4.2333465 0 0 0 0.656896,0.72892 c 1.550997,-0.26887 2.813222,-0.6707 3.570621,-1.08565 z m -0.183024,0.28007 c -0.447583,0.21893 -1.568999,0.63415 -3.216626,0.95005 A 4.2333385,4.2333465 0 0 0 24.83,118.4074 c 0.649863,-0.5816 1.33342,-1.17684 1.817199,-1.68329 z" /></g><g
       id="g15352"
       transform="translate(-1.1310065,6.5727009)"><ellipse
         style="fill:#ffffff;fill-opacity:1;stroke:none;stroke-width:0.98407;stroke-opacity:1"
         id="path12343-6-3"
         cx="-0.776326"
         cy="142.40079"
         rx="4.2333331"
         ry="4.2333312" /><path
         id="path6308-6-3"
         style="fill:#cb975d;fill-opacity:1;stroke-width:0.0580232"
         d="m -0.776325,138.16745 a 4.2333385,4.2333465 0 0 0 -0.588082,0.0461 c -0.04635,0.15124 -0.08753,0.30794 -0.121137,0.46982 -0.229785,1.10752 -0.324639,2.88658 0.450664,4.74803 -0.0013,-0.11582 -0.07215,-2.82294 1.492649,-5.07974 a 4.2333385,4.2333465 0 0 0 -1.234094,-0.1842 z m -0.773804,0.0736 a 4.2333385,4.2333465 0 0 0 -1.632466,0.68013 c 0.02128,0.16342 0.04671,0.32545 0.07742,0.48449 0.397226,2.05739 1.257583,3.41917 1.934917,4.12768 -0.331764,-0.78555 -0.537946,-1.70203 -0.612759,-2.5281 -0.07081,-0.78377 -0.02495,-1.57643 0.136698,-2.3553 0.02917,-0.14051 0.06156,-0.27678 0.09619,-0.4089 z m 2.223815,0.18308 c -0.755475,1.01387 -1.327606,2.33164 -1.494807,3.91443 0.410141,-0.92226 1.169863,-2.00307 2.15803,-2.86521 0.161973,-0.14126 0.328239,-0.2763 0.497139,-0.40497 a 4.2333385,4.2333465 0 0 0 -1.160362,-0.64425 z m -4.01112,0.61193 a 4.2333385,4.2333465 0 0 0 -1.018177,1.11187 c 0.118145,0.17213 0.241665,0.34082 0.371805,0.50641 0.01915,0.0245 0.03876,0.049 0.05835,0.0735 0.008,0.0102 0.01645,0.0209 0.02492,0.0312 0.01024,0.0129 0.02049,0.0254 0.03074,0.0379 0.01203,0.0151 0.0245,0.0303 0.03697,0.0454 0.0018,0.002 0.0036,0.004 0.0053,0.007 0.507666,0.61633 1.172989,1.29276 1.957645,1.99192 -0.546854,-0.76417 -1.099515,-1.86634 -1.396099,-3.40403 -0.02557,-0.13241 -0.04941,-0.26623 -0.07148,-0.40077 z m 5.305933,0.14212 c -0.177603,0.13026 -0.35279,0.26977 -0.523827,0.41897 -1.129779,0.98595 -1.953621,2.22392 -2.283604,3.24371 0.352694,-0.37051 0.940967,-0.94674 1.680201,-1.51274 0.652075,-0.49934 1.294691,-0.93006 1.921784,-1.24885 a 4.2333385,4.2333465 0 0 0 -0.794554,-0.90109 z m 0.873682,1.0264 c -1.127704,0.55053 -2.126872,1.39305 -2.828779,2.03287 0.177359,-0.085 1.789553,-0.46997 3.396533,-0.46226 a 4.2333385,4.2333465 0 0 0 -0.567754,-1.57061 z m -7.291883,0.10032 a 4.2333385,4.2333465 0 0 0 -0.487755,1.33137 c 1.611035,1.41098 3.141291,2.12754 4.339419,2.62072 0.01514,0.006 0.03209,0.002 0.04768,0.004 -0.105096,-0.0815 -0.252965,-0.19772 -0.431984,-0.3429 -0.0058,-0.004 -0.01111,-0.008 -0.01601,-0.0129 -0.500541,-0.40705 -1.236665,-1.1365 -1.954077,-1.85525 -0.01069,-0.0111 -0.02182,-0.0218 -0.03251,-0.0329 -0.01158,-0.012 -0.02362,-0.0236 -0.0352,-0.0356 -0.389211,-0.39322 -0.731208,-0.7731 -1.023784,-1.13781 -8.75e-4,-8.8e-4 -0.0014,-0.002 -0.0022,-0.003 -0.02227,-0.0285 -0.04498,-0.0566 -0.06681,-0.0846 -0.11568,-0.14718 -0.227734,-0.29753 -0.336754,-0.45097 z m -0.523436,1.5719 a 4.2333385,4.2333465 0 0 0 -0.03652,0.52398 4.2333385,4.2333465 0 0 0 0.08024,0.81858 c 1.157531,0.35694 2.447612,0.7016 3.7075,0.96237 -1.060965,-0.48434 -2.385633,-1.18364 -3.751216,-2.30493 z m 8.071356,0.12693 c -0.818934,-10e-4 -1.875719,0.0973 -3.100408,0.43591 0.657921,-0.0114 2.111411,-0.0941 3.445167,0.24656 a 4.2333385,4.2333465 0 0 0 0.01403,-0.28542 4.2333385,4.2333465 0 0 0 -0.0185,-0.39057 c -0.108339,-0.004 -0.22178,-0.006 -0.340292,-0.007 z m -2.555773,0.60247 c 0.31217,0.19951 0.90399,0.49342 1.540354,1.00955 0.318805,0.25873 0.611579,0.51755 0.877401,0.77419 a 4.2333385,4.2333465 0 0 0 0.459059,-1.45721 C 2.386109,142.6642 1.273127,142.62365 0.542445,142.6062 Z m -0.749487,0.006 c -0.03744,2.4e-4 -0.06636,7.5e-4 -0.08462,0.002 h -0.07925 c -0.07036,0.0659 -0.385203,0.38743 -0.47783,0.47784 -0.0045,0.22533 0,0.43373 0,0.67554 0.331764,0.32776 0.374961,0.36917 0.47783,0.47783 h 0.675547 c 0.176792,-0.19505 0.460908,-0.45957 0.477829,-0.47783 0.0036,-0.18614 0,-0.67554 0,-0.67554 -0.06457,-0.0704 -0.477829,-0.47784 -0.477829,-0.47784 -0.21008,0 -0.399357,-0.002 -0.511682,-0.002 z m 1.18366,0.48194 c 0.367838,0.54137 0.885106,1.39841 1.297481,2.2375 a 4.2333385,4.2333465 0 0 0 0.599506,-0.79557 c -0.30436,-0.29641 -0.614049,-0.56497 -0.895451,-0.79312 -0.363828,-0.2948 -0.712523,-0.44799 -1.001536,-0.64883 z m -0.03338,0.24494 0.0067,0.17322 c 0.01158,0.23647 0.01739,0.47339 0.01739,0.7103 0.0011,0.69634 0.03748,1.38714 -0.03361,2.04707 a 4.2333385,4.2333465 0 0 0 1.167649,-0.77021 c -0.343013,-0.77282 -0.780593,-1.58566 -1.158079,-2.1604 z m -5.812454,0.12399 a 4.2333385,4.2333465 0 0 0 0.509943,1.18483 c 1.388275,0.0633 2.716703,-0.004 3.863657,-0.21912 -0.71207,-0.0452 -2.415329,-0.40011 -4.3736,-0.96571 z m 5.67171,0.58673 c -0.280939,0.636 -0.633659,1.57507 -1.2391,2.56798 a 4.2333385,4.2333465 0 0 0 1.076916,-0.23277 c 0.109267,-0.71656 0.164331,-1.45956 0.163534,-2.18109 -4.75e-4,-0.0512 -4.75e-4,-0.10243 -0.0014,-0.15409 z m -0.262722,0.18171 c -0.0334,0.0374 -0.0677,0.0757 -0.102876,0.11445 -0.0067,0.0142 -0.01738,0.0263 -0.03118,0.0347 -0.562867,0.61936 -1.29161,1.33853 -2.166096,2.13284 a 4.2333385,4.2333465 0 0 0 0.984056,0.12093 4.2333385,4.2333465 0 0 0 0.135649,-0.007 h -0.08651 c 0.567785,-0.92894 1.008226,-1.83073 1.266957,-2.39629 z m -0.538848,0.25873 c -0.462813,0.10929 -2.039713,0.39537 -4.227517,0.35673 a 4.2333385,4.2333465 0 0 0 0.656896,0.72892 c 1.550997,-0.26887 2.813222,-0.6707 3.570621,-1.08565 z m -0.183024,0.28007 c -0.447583,0.21893 -1.568999,0.63415 -3.216626,0.95005 a 4.2333385,4.2333465 0 0 0 1.399431,0.73295 c 0.649863,-0.5816 1.33342,-1.17684 1.817199,-1.68329 z" /></g><g
       id="g15340"
       transform="translate(-0.74334675,-0.64431368)"><ellipse
         style="fill:#ffffff;fill-opacity:1;stroke:none;stroke-width:0.98407;stroke-opacity:1"
         id="path12343-6-3-2"
         cx="-34.236897"
         cy="116.54489"
         rx="4.2333331"
         ry="4.2333312" /><path
         id="path6308-6-3-5"
         style="fill:#0972ad;fill-opacity:1;stroke-width:0.0580232"
         d="m -34.236896,112.31155 a 4.2333385,4.2333465 0 0 0 -0.588082,0.0461 c -0.04635,0.15124 -0.08753,0.30794 -0.121137,0.46982 -0.229785,1.10752 -0.324639,2.88658 0.450664,4.74803 -0.0013,-0.11582 -0.07215,-2.82294 1.492649,-5.07974 a 4.2333385,4.2333465 0 0 0 -1.234094,-0.1842 z m -0.773804,0.0736 a 4.2333385,4.2333465 0 0 0 -1.632466,0.68013 c 0.02128,0.16342 0.04671,0.32545 0.07742,0.48449 0.397226,2.05739 1.257583,3.41917 1.934917,4.12768 -0.331764,-0.78555 -0.537946,-1.70203 -0.612759,-2.5281 -0.07081,-0.78377 -0.02495,-1.57643 0.136698,-2.3553 0.02917,-0.14051 0.06156,-0.27678 0.09619,-0.4089 z m 2.223815,0.18308 c -0.755475,1.01387 -1.327606,2.33164 -1.494807,3.91443 0.410141,-0.92226 1.169863,-2.00307 2.15803,-2.86521 0.161973,-0.14126 0.328239,-0.2763 0.497139,-0.40497 a 4.2333385,4.2333465 0 0 0 -1.160362,-0.64425 z m -4.01112,0.61193 a 4.2333385,4.2333465 0 0 0 -1.018177,1.11187 c 0.118145,0.17213 0.241665,0.34082 0.371805,0.50641 0.01915,0.0245 0.03876,0.049 0.05835,0.0735 0.008,0.0102 0.01645,0.0209 0.02492,0.0312 0.01024,0.0129 0.02049,0.0254 0.03074,0.0379 0.01203,0.0151 0.0245,0.0303 0.03697,0.0454 0.0018,0.002 0.0036,0.004 0.0053,0.007 0.507666,0.61633 1.172989,1.29276 1.957645,1.99192 -0.546854,-0.76417 -1.099515,-1.86634 -1.396099,-3.40403 -0.02557,-0.13241 -0.04941,-0.26623 -0.07148,-0.40077 z m 5.305933,0.14212 c -0.177603,0.13026 -0.35279,0.26977 -0.523827,0.41897 -1.129779,0.98595 -1.953621,2.22392 -2.283604,3.24371 0.352694,-0.37051 0.940967,-0.94674 1.680201,-1.51274 0.652075,-0.49934 1.294691,-0.93006 1.921784,-1.24885 a 4.2333385,4.2333465 0 0 0 -0.794554,-0.90109 z m 0.873682,1.0264 c -1.127704,0.55053 -2.126872,1.39305 -2.828779,2.03287 0.177359,-0.085 1.789553,-0.46997 3.396533,-0.46226 a 4.2333385,4.2333465 0 0 0 -0.567754,-1.57061 z m -7.291883,0.10032 a 4.2333385,4.2333465 0 0 0 -0.487755,1.33137 c 1.611035,1.41098 3.141291,2.12754 4.339419,2.62072 0.01514,0.006 0.03209,0.002 0.04768,0.004 -0.105096,-0.0815 -0.252965,-0.19772 -0.431984,-0.3429 -0.0058,-0.004 -0.01111,-0.008 -0.01601,-0.0129 -0.500541,-0.40705 -1.236665,-1.1365 -1.954077,-1.85525 -0.01069,-0.0111 -0.02182,-0.0218 -0.03251,-0.0329 -0.01158,-0.012 -0.02362,-0.0236 -0.0352,-0.0356 -0.389211,-0.39322 -0.731208,-0.7731 -1.023784,-1.13781 -8.75e-4,-8.8e-4 -0.0014,-0.002 -0.0022,-0.003 -0.02227,-0.0285 -0.04498,-0.0566 -0.06681,-0.0846 -0.11568,-0.14718 -0.227734,-0.29753 -0.336754,-0.45097 z m -0.523436,1.5719 a 4.2333385,4.2333465 0 0 0 -0.03652,0.52398 4.2333385,4.2333465 0 0 0 0.08024,0.81858 c 1.157531,0.35694 2.447612,0.7016 3.7075,0.96237 -1.060965,-0.48434 -2.385633,-1.18364 -3.751216,-2.30493 z m 8.071356,0.12693 c -0.818934,-0.001 -1.875719,0.0973 -3.100408,0.43591 0.657921,-0.0114 2.111411,-0.0941 3.445167,0.24656 a 4.2333385,4.2333465 0 0 0 0.01403,-0.28542 4.2333385,4.2333465 0 0 0 -0.0185,-0.39057 c -0.108339,-0.004 -0.22178,-0.006 -0.340292,-0.007 z m -2.555773,0.60247 c 0.31217,0.19951 0.90399,0.49342 1.540354,1.00955 0.318805,0.25873 0.611579,0.51755 0.877401,0.77419 a 4.2333385,4.2333465 0 0 0 0.459059,-1.45721 c -1.03315,-0.26853 -2.146132,-0.30908 -2.876814,-0.32653 z m -0.749487,0.006 c -0.03744,2.4e-4 -0.06636,7.5e-4 -0.08462,0.002 h -0.07925 c -0.07036,0.0659 -0.385203,0.38743 -0.47783,0.47784 -0.0045,0.22533 0,0.43373 0,0.67554 0.331764,0.32776 0.374961,0.36917 0.47783,0.47783 h 0.675547 c 0.176792,-0.19505 0.460908,-0.45957 0.477829,-0.47783 0.0036,-0.18614 0,-0.67554 0,-0.67554 -0.06457,-0.0704 -0.477829,-0.47784 -0.477829,-0.47784 -0.21008,0 -0.399357,-0.002 -0.511682,-0.002 z m 1.18366,0.48194 c 0.367838,0.54137 0.885106,1.39841 1.297481,2.2375 a 4.2333385,4.2333465 0 0 0 0.599506,-0.79557 c -0.30436,-0.29641 -0.614049,-0.56497 -0.895451,-0.79312 -0.363828,-0.2948 -0.712523,-0.44799 -1.001536,-0.64883 z m -0.03338,0.24494 0.0067,0.17322 c 0.01158,0.23647 0.01739,0.47339 0.01739,0.7103 0.0011,0.69634 0.03748,1.38714 -0.03361,2.04707 a 4.2333385,4.2333465 0 0 0 1.167649,-0.77021 c -0.343013,-0.77282 -0.780593,-1.58566 -1.158079,-2.1604 z m -5.812454,0.12399 a 4.2333385,4.2333465 0 0 0 0.509943,1.18483 c 1.388275,0.0633 2.716703,-0.004 3.863657,-0.21912 -0.71207,-0.0452 -2.415329,-0.40011 -4.3736,-0.96571 z m 5.67171,0.58673 c -0.280939,0.636 -0.633659,1.57507 -1.2391,2.56798 a 4.2333385,4.2333465 0 0 0 1.076916,-0.23277 c 0.109267,-0.71656 0.164331,-1.45956 0.163534,-2.18109 -4.75e-4,-0.0512 -4.75e-4,-0.10243 -0.0014,-0.15409 z m -0.262722,0.18171 c -0.0334,0.0374 -0.0677,0.0757 -0.102876,0.11445 -0.0067,0.0142 -0.01738,0.0263 -0.03118,0.0347 -0.562867,0.61936 -1.29161,1.33853 -2.166096,2.13284 a 4.2333385,4.2333465 0 0 0 0.984056,0.12093 4.2333385,4.2333465 0 0 0 0.135649,-0.007 h -0.08651 c 0.567785,-0.92894 1.008226,-1.83073 1.266957,-2.39629 z m -0.538848,0.25873 c -0.462813,0.10929 -2.039713,0.39537 -4.227517,0.35673 a 4.2333385,4.2333465 0 0 0 0.656896,0.72892 c 1.550997,-0.26887 2.813222,-0.6707 3.570621,-1.08565 z m -0.183024,0.28007 c -0.447583,0.21893 -1.568999,0.63415 -3.216626,0.95005 a 4.2333385,4.2333465 0 0 0 1.399431,0.73295 c 0.649863,-0.5816 1.33342,-1.17684 1.817199,-1.68329 z" /></g><g
       id="g16493"
       transform="matrix(0.06414291,0,0,0.06414291,-14.1814,101.09519)"><path
         d="m 381.86,161.77 c -34.31,-23.88 -90.04,-20.37 -110.73,-20.01 62.86,-17.38 106.02,-6.61 110.73,-5.21 v -6.2 c 0,0 0,0 0,0 v 0 c -43.19,-10.04 -105.1,4.34 -110.38,6.87 21.48,-19.58 55.35,-47.63 92.04,-55.99 0.24,-0.05 0.47,-0.11 0.7,-0.16 3.85,1.26 15.91,7.94 17.63,8.59 v -6.12 c -1.71,-0.64 -3.77,-1.28 -5.37,-1.9 -1.82,-0.7 -3.58,-1.38 -5.38,-2.05 3.47,-0.7 7.45,-1.23 10.75,-1.63 v -6.33 c -5.56,1.38 -12.12,4.42 -19.15,6.02 -23.13,5.27 -47.57,19.96 -72.63,39.15 -16.6,12.71 -29.81,25.65 -37.73,33.97 7.41,-22.9 25.91,-50.7 51.28,-72.84 25.62,-22.35 55.34,-35.21 78.23,-38.87 v -6.31 c -23.54,3.77 -54.53,19.62 -80.65,42.4 -22.19,19.36 -39.25,43.63 -48.46,64.34 6.24,-59.07 37.58,-101.73 71.23,-123.88 27.46,-6.57 46.16,0.85 57.88,5.77 v -6.07 c -10.72,-4.5 -25.96,-8.87 -48.66,-5.3 4.91,-3.18 15.22,-8.52 20.09,-10.49 H 341.2 c -96.36,45.17 -93.3,160.9 -93.26,164.51 -17.41,-41.8 -15.28,-81.75 -10.12,-106.62 6.51,-31.36 25.25,-54.5 28.96,-57.89 h -8.33 c -5.36,4.89 -17.97,26.93 -24.24,57.14 -3.63,17.49 -4.66,35.29 -3.07,52.89 1.68,18.55 6.31,39.13 13.76,56.77 -15.21,-15.91 -34.53,-46.49 -43.45,-92.69 -4.77,-24.7 -4.47,-52.4 0.83,-74.11 h -6.25 c -5.42,22.21 -3.06,49.59 1.81,74.81 6.66,34.53 19.07,59.28 31.35,76.44 -17.62,-15.7 -32.56,-30.89 -43.96,-44.73 -0.04,-0.05 -0.08,-0.1 -0.12,-0.15 -0.28,-0.34 -0.56,-0.68 -0.83,-1.02 -0.23,-0.28 -0.46,-0.56 -0.69,-0.85 -0.19,-0.23 -0.38,-0.47 -0.56,-0.7 -0.44,-0.55 -0.88,-1.1 -1.31,-1.65 C 159.44,73.32 145.6,41.06 130.86,-0.48 v 0 c 0,0 0,0 0,0 h -6.15 c 14.88,41.92 31.56,75.74 54.11,104.43 0.49,0.63 1,1.26 1.5,1.9 0.02,0.02 0.03,0.04 0.05,0.06 6.57,8.19 14.25,16.72 22.99,25.55 0.26,0.27 0.53,0.53 0.79,0.8 0.24,0.25 0.49,0.49 0.73,0.74 16.11,16.14 32.64,32.52 43.88,41.66 0.11,0.11 0.23,0.21 0.36,0.29 4.02,3.26 7.34,5.87 9.7,7.7 -0.35,-0.03 -0.73,0.05 -1.07,-0.08 C 214.75,164.87 152.7,134.36 94.64,47.85 91.02,33.15 91.48,15.83 90.76,-0.47 h -6.35 c 0.58,13.01 1.04,27.64 3.45,39.71 C 80.31,27.32 74.12,13.38 67.29,-0.47 h -8.65 c 56.18,112.8 134.17,158.1 185.1,181.35 C 174.41,166.53 100.99,140.87 77.35,127.55 45.99,106.19 -0.31,30.44 -0.31,30.44 v 11.29 c 0.18,0.53 40.85,63.26 64.62,82.87 C 37.86,113.35 12.27,97.41 -0.31,89.08 v 8.42 c 72.07,48.23 223.94,86.61 260.36,88.92 -74.71,14.03 -183.7,0.05 -260.36,-32.21 v 6.13 c 130.29,53.09 250.76,32.36 271.51,27.46 -43.46,23.81 -160.93,45.7 -271.51,20.75 v 8.92 c 142.01,22.27 244.38,-12.12 267.4,-23.38 -11.95,12.51 -29.37,27.45 -45.19,41.72 h 6.92 c 20.92,-18.87 38.22,-35.89 51.47,-50.47 0.31,-0.19 0.55,-0.46 0.7,-0.78 0.79,-0.87 1.56,-1.73 2.31,-2.57 -5.81,12.7 -15.7,32.95 -28.45,53.81 h 6.39 c 13.68,-22.38 21.63,-43.56 27.96,-57.89 0.02,1.16 0.02,2.31 0.03,3.46 0.02,18.04 -1.51,36.68 -4.55,54.43 -0.07,0.41 -0.14,-0.41 -0.22,0 v 0 c 0,0 0,0 0,0 h 3.62 c 0,0 0,0 0,0 v 0 c 0.09,-0.52 2.85,0.52 2.94,0 3.06,-17.2 1.91,-35.52 1.88,-54.01 0,-5.32 -0.13,-10.64 -0.39,-15.95 l -0.15,-3.89 c 12.86,19.58 28.86,51.48 35.77,73.85 h 6.19 c -7.71,-24.98 -28.47,-60.6 -41.21,-79.35 6.49,4.51 14.32,7.95 22.49,14.57 13.74,11.14 30.49,26.53 42.46,43.45 0,0 1.33,4.33 0.33,21.34 h 6.34 c -0.2,-1.88 -1.33,-12.27 -2.25,-16.59 1.83,3.25 6.52,13.29 7.87,16.59 h 5.66 c -4.53,-11.15 -15.69,-25.84 -26.55,-38.03 -8.65,-9.7 -19.25,-19.66 -31.51,-29.61 -14.29,-11.59 -27.58,-18.19 -34.59,-22.67 25.13,0.6 70.4,2.41 98.52,21.98 v -5.7 z m -93.11,-5.37 c 0,0 0.08,10.99 0,15.17 -0.38,0.41 -6.76,6.35 -10.73,10.73 h -15.17 c -2.31,-2.44 -3.28,-3.37 -10.73,-10.73 0,-5.43 -0.1,-10.11 0,-15.17 2.08,-2.03 9.15,-9.25 10.73,-10.73 h 1.78 c 1.64,-0.1 7.1,0 13.39,0 0,0 9.28,9.15 10.73,10.73 z"
         id="path16443" /><path
         d="m 36.65,260.38 c 20.58,0 31.77,11.19 31.77,31.95 v 10.11 c 0,20.76 -11.19,31.96 -31.77,31.96 h -8.49 v 52.36 H 9.02 V 260.38 h 27.62 z m -8.49,56.33 h 7.76 c 9.21,0 13.36,-4.87 13.36,-15.53 v -7.58 c 0,-10.65 -4.15,-15.53 -13.36,-15.53 h -7.76 z"
         id="path16445" /><path
         d="m 118.43,386.75 -4.15,-28.71 H 93.16 l -4.15,28.71 H 69.87 L 91.72,260.37 h 24.37 l 21.85,126.38 h -19.5 z M 95.68,340.71 h 16.07 l -7.76,-53.26 h -0.54 l -7.76,53.26 z"
         id="path16447" /><path
         d="m 202.75,368.7 v 18.05 H 151.66 V 260.37 h 19.14 v 108.32 h 31.96 z"
         id="path16449" /><path
         d="m 276.95,386.75 v -87.74 h -0.36 L 260.7,368.7 h -11.37 l -15.89,-69.69 h -0.36 v 87.74 H 215.03 V 260.37 h 25.1 l 14.98,67.88 h 0.36 l 14.8,-67.88 h 25.82 v 126.38 z"
         id="path16451" /><path
         d="m 358.38,386.75 -4.15,-28.71 h -21.12 l -4.15,28.71 h -19.14 l 21.85,-126.38 h 24.37 l 21.85,126.38 h -19.5 z m -22.75,-46.04 h 16.07 l -7.76,-53.26 h -0.54 l -7.76,53.26 z"
         id="path16453" /><path
         d="m 21.74,413.92 c 2.46,0 4.6,0.45 6.42,1.35 1.82,0.9 3.24,2.18 4.27,3.83 1.03,1.65 1.54,3.62 1.54,5.89 0,2.27 -0.52,4.24 -1.54,5.89 -1.03,1.65 -2.45,2.93 -4.27,3.83 -1.82,0.9 -3.96,1.35 -6.42,1.35 h -8.43 v 14.21 H 8.9 v -36.36 h 12.84 z m -0.66,18.01 c 2.86,0 4.96,-0.6 6.28,-1.79 1.32,-1.19 1.98,-2.91 1.98,-5.15 0,-2.24 -0.66,-4 -1.98,-5.18 -1.32,-1.17 -3.42,-1.76 -6.28,-1.76 h -7.77 v 13.88 z"
         id="path16455" /><path
         d="m 61.79,413.92 c 3.71,0 6.68,0.96 8.92,2.86 2.24,1.91 3.36,4.5 3.36,7.77 0,3.27 -1.13,5.81 -3.39,7.63 -2.26,1.82 -5.24,2.73 -8.95,2.73 l -0.38,0.28 h -8.92 v 15.09 h -4.41 v -36.36 z m -0.06,17.13 c 2.61,0 4.55,-0.54 5.81,-1.62 1.27,-1.08 1.9,-2.71 1.9,-4.88 0,-2.17 -0.63,-3.79 -1.9,-4.88 -1.27,-1.08 -3.21,-1.62 -5.81,-1.62 h -9.31 v 13 z m 2.54,0.88 12.01,18.34 H 71.05 L 60.58,434.35 Z"
         id="path16457" /><path
         d="m 104.48,413.37 c 3.45,0 6.44,0.76 8.95,2.29 2.52,1.52 4.46,3.68 5.84,6.47 1.38,2.79 2.07,6.12 2.07,9.97 0,3.85 -0.69,7.18 -2.07,9.97 -1.38,2.79 -3.32,4.95 -5.84,6.47 -2.52,1.52 -5.5,2.29 -8.95,2.29 -3.45,0 -6.44,-0.76 -8.95,-2.29 -2.52,-1.52 -4.46,-3.68 -5.84,-6.47 -1.38,-2.79 -2.07,-6.12 -2.07,-9.97 0,-3.85 0.69,-7.18 2.07,-9.97 1.38,-2.79 3.32,-4.95 5.84,-6.47 2.52,-1.52 5.5,-2.29 8.95,-2.29 z m 0,4.13 c -2.5,0 -4.66,0.58 -6.5,1.74 -1.84,1.16 -3.25,2.83 -4.24,5.01 -0.99,2.19 -1.49,4.8 -1.49,7.85 0,3.05 0.5,5.67 1.49,7.85 0.99,2.19 2.41,3.86 4.24,5.01 1.84,1.16 4,1.74 6.5,1.74 2.5,0 4.71,-0.58 6.53,-1.74 1.82,-1.16 3.22,-2.83 4.21,-5.01 0.99,-2.18 1.49,-4.8 1.49,-7.85 0,-3.05 -0.5,-5.67 -1.49,-7.85 -0.99,-2.18 -2.4,-3.86 -4.21,-5.01 -1.82,-1.16 -3.99,-1.74 -6.53,-1.74 z"
         id="path16459" /><path
         d="m 148.28,413.92 c 5.69,0 10.16,1.57 13.41,4.71 3.25,3.14 4.88,7.63 4.88,13.47 0,5.84 -1.63,10.33 -4.88,13.47 -3.25,3.14 -7.72,4.71 -13.41,4.71 h -11.73 v -36.36 z m 0.44,32.23 c 4.15,0 7.39,-1.24 9.72,-3.72 2.33,-2.48 3.5,-5.92 3.5,-10.33 0,-4.41 -1.17,-7.85 -3.5,-10.33 -2.33,-2.48 -5.57,-3.72 -9.72,-3.72 h -7.77 v 28.1 z"
         id="path16461" /><path
         d="m 209.59,413.92 v 22.81 c 0,4.66 -1.23,8.18 -3.69,10.55 -2.46,2.37 -5.99,3.55 -10.58,3.55 -4.59,0 -8.07,-1.18 -10.55,-3.55 -2.48,-2.37 -3.72,-5.89 -3.72,-10.55 v -22.81 h 4.41 v 21.71 c 0,3.78 0.8,6.58 2.4,8.37 1.6,1.8 4.08,2.7 7.46,2.7 3.38,0 5.87,-0.9 7.46,-2.7 1.6,-1.8 2.4,-4.59 2.4,-8.37 v -21.71 z"
         id="path16463" /><path
         d="m 255.59,440.97 c -0.77,2.06 -1.87,3.83 -3.31,5.32 -1.44,1.49 -3.11,2.62 -5.04,3.39 -1.93,0.77 -4.03,1.16 -6.31,1.16 -3.45,0 -6.44,-0.76 -8.95,-2.29 -2.52,-1.52 -4.46,-3.68 -5.84,-6.47 -1.38,-2.79 -2.07,-6.12 -2.07,-9.97 0,-3.85 0.69,-7.18 2.07,-9.97 1.38,-2.79 3.32,-4.95 5.84,-6.47 2.52,-1.52 5.46,-2.29 8.84,-2.29 2.35,0 4.44,0.32 6.28,0.96 1.84,0.64 3.41,1.6 4.71,2.86 1.3,1.27 2.34,2.82 3.11,4.66 l -4.35,2.04 c -0.81,-2.09 -1.97,-3.68 -3.5,-4.76 -1.52,-1.08 -3.5,-1.62 -5.92,-1.62 -2.42,0 -4.63,0.58 -6.5,1.74 -1.87,1.16 -3.33,2.82 -4.38,4.99 -1.05,2.17 -1.57,4.79 -1.57,7.88 0,3.09 0.5,5.67 1.49,7.85 0.99,2.19 2.41,3.86 4.24,5.01 1.84,1.16 4,1.74 6.5,1.74 2.5,0 4.54,-0.61 6.34,-1.85 1.8,-1.23 3.1,-3.08 3.91,-5.54 l 4.41,1.65 z m -17.79,9.09 2.31,-1.38 c 2.17,0.7 3.71,1.64 4.63,2.84 0.92,1.19 1.38,2.6 1.38,4.21 0,1.76 -0.62,3.27 -1.87,4.52 -1.25,1.25 -2.85,1.87 -4.79,1.87 -1.14,0 -2.14,-0.15 -3,-0.44 -0.86,-0.29 -1.61,-0.68 -2.23,-1.16 l 1.05,-3.2 c 0.51,0.33 1.05,0.62 1.62,0.88 0.57,0.26 1.26,0.39 2.07,0.39 1.03,0 1.87,-0.33 2.53,-0.99 0.66,-0.66 0.99,-1.62 0.99,-2.87 0,-0.96 -0.35,-1.78 -1.05,-2.48 -0.7,-0.7 -1.91,-1.43 -3.64,-2.2 z"
         id="path16465" /><path
         d="m 284.24,413.37 c 3.45,0 6.44,0.76 8.95,2.29 2.52,1.52 4.46,3.68 5.84,6.47 1.38,2.79 2.07,6.12 2.07,9.97 0,3.85 -0.69,7.18 -2.07,9.97 -1.38,2.79 -3.32,4.95 -5.84,6.47 -2.52,1.52 -5.5,2.29 -8.95,2.29 -3.45,0 -6.44,-0.76 -8.95,-2.29 -2.52,-1.52 -4.46,-3.68 -5.84,-6.47 -1.38,-2.79 -2.07,-6.12 -2.07,-9.97 0,-3.85 0.69,-7.18 2.07,-9.97 1.38,-2.79 3.32,-4.95 5.84,-6.47 2.52,-1.52 5.5,-2.29 8.95,-2.29 z m 0,4.13 c -2.5,0 -4.66,0.58 -6.5,1.74 -1.84,1.16 -3.25,2.83 -4.24,5.01 -0.99,2.19 -1.49,4.8 -1.49,7.85 0,3.05 0.5,5.67 1.49,7.85 0.99,2.19 2.41,3.86 4.24,5.01 1.84,1.16 4,1.74 6.5,1.74 2.5,0 4.71,-0.58 6.53,-1.74 1.82,-1.16 3.22,-2.83 4.21,-5.01 0.99,-2.18 1.49,-4.8 1.49,-7.85 0,-3.05 -0.5,-5.67 -1.49,-7.85 -0.99,-2.18 -2.4,-3.86 -4.21,-5.01 -1.82,-1.16 -3.99,-1.74 -6.53,-1.74 z m 9.92,-15.54 c -0.11,1.62 -0.41,2.98 -0.91,4.08 -0.5,1.1 -1.18,1.93 -2.04,2.48 -0.86,0.55 -1.94,0.83 -3.22,0.83 -1.03,0 -1.9,-0.19 -2.62,-0.58 -0.72,-0.39 -1.33,-0.82 -1.85,-1.29 -0.51,-0.48 -1.02,-0.91 -1.51,-1.29 -0.5,-0.39 -1.04,-0.58 -1.63,-0.58 -0.81,0 -1.41,0.34 -1.82,1.02 -0.41,0.68 -0.7,1.61 -0.88,2.78 h -3.47 c 0.18,-2.42 0.78,-4.26 1.79,-5.51 1.01,-1.25 2.49,-1.87 4.43,-1.87 0.99,0 1.85,0.19 2.56,0.58 0.71,0.39 1.34,0.82 1.87,1.29 0.53,0.48 1.04,0.91 1.51,1.29 0.48,0.39 0.99,0.58 1.54,0.58 0.84,0 1.47,-0.34 1.87,-1.02 0.4,-0.68 0.7,-1.61 0.88,-2.78 h 3.47 z"
         id="path16467" /><path
         d="m 316.3,450.28 v -36.36 h 25.51 v 4.13 h -21.1 v 11.73 h 16.42 v 4.13 h -16.42 v 12.23 h 21.93 v 4.13 h -26.33 z"
         id="path16469" /><path
         d="m 368.64,413.37 c 3.2,0 5.95,0.65 8.26,1.96 2.31,1.3 4.24,3.22 5.78,5.76 l -3.69,2.87 c -1.36,-2.35 -2.89,-4.01 -4.6,-4.99 -1.71,-0.98 -3.77,-1.46 -6.2,-1.46 -1.95,0 -3.55,0.28 -4.82,0.83 -1.27,0.55 -2.2,1.28 -2.78,2.18 -0.59,0.9 -0.88,1.92 -0.88,3.06 0,1.29 0.4,2.42 1.21,3.39 0.81,0.97 2.42,1.74 4.85,2.29 l 7.88,1.76 c 3.49,0.77 5.92,1.94 7.3,3.5 1.38,1.56 2.07,3.5 2.07,5.81 0,2.06 -0.58,3.88 -1.74,5.48 -1.16,1.6 -2.78,2.84 -4.88,3.72 -2.09,0.88 -4.55,1.32 -7.38,1.32 -2.64,0 -4.97,-0.36 -6.97,-1.07 -2,-0.72 -3.72,-1.68 -5.15,-2.89 -1.43,-1.21 -2.61,-2.57 -3.53,-4.08 l 3.86,-3.14 c 0.7,1.4 1.6,2.63 2.7,3.69 1.1,1.07 2.43,1.89 3.99,2.48 1.56,0.59 3.35,0.88 5.37,0.88 1.87,0 3.5,-0.23 4.88,-0.69 1.38,-0.46 2.43,-1.14 3.17,-2.04 0.73,-0.9 1.1,-1.99 1.1,-3.28 0,-1.17 -0.39,-2.23 -1.16,-3.17 -0.77,-0.94 -2.22,-1.64 -4.35,-2.12 l -8.54,-1.93 c -2.24,-0.51 -4.05,-1.22 -5.43,-2.12 -1.38,-0.9 -2.37,-1.96 -2.98,-3.2 -0.61,-1.23 -0.91,-2.56 -0.91,-3.99 0,-1.95 0.54,-3.74 1.62,-5.37 1.08,-1.63 2.64,-2.95 4.68,-3.94 2.04,-0.99 4.45,-1.49 7.24,-1.49 z"
         id="path16471" /></g></g></svg>
