<?xml version="1.0" encoding="UTF-8" standalone="no"?>
<!-- Created with Inkscape (http://www.inkscape.org/) -->

<svg
   width="270.93332mm"
   height="270.93335mm"
   viewBox="0 0 270.93332 270.93335"
   version="1.1"
   id="svg19803"
   sodipodi:docname="icon.svg"
   inkscape:version="1.2.1 (9c6d41e410, 2022-07-14)"
   xmlns:inkscape="http://www.inkscape.org/namespaces/inkscape"
   xmlns:sodipodi="http://sodipodi.sourceforge.net/DTD/sodipodi-0.dtd"
   xmlns="http://www.w3.org/2000/svg"
   xmlns:svg="http://www.w3.org/2000/svg">
  <sodipodi:namedview
     id="namedview19805"
     pagecolor="#ffffff"
     bordercolor="#000000"
     borderopacity="0.25"
     inkscape:showpageshadow="2"
     inkscape:pageopacity="0.0"
     inkscape:pagecheckerboard="0"
     inkscape:deskcolor="#d1d1d1"
     inkscape:document-units="mm"
     showgrid="false"
     inkscape:zoom="0.54362802"
     inkscape:cx="334.78775"
     inkscape:cy="404.68848"
     inkscape:window-width="2560"
     inkscape:window-height="1017"
     inkscape:window-x="-8"
     inkscape:window-y="-8"
     inkscape:window-maximized="1"
     inkscape:current-layer="layer1" />
  <defs
     id="defs19800" />
  <g
     inkscape:label="Camada 1"
     inkscape:groupmode="layer"
     id="layer1"
     transform="translate(-80.77129,-140.99708)">
    <circle
       style="fill:#000000;fill-opacity:1;stroke:none;stroke-width:31.3981;stroke-opacity:1"
       id="path12343-6-3-2"
       cx="216.23795"
       cy="276.46375"
       r="135.06979" />
    <path
       id="path6308-6-3-5"
       style="fill:#ffffff;fill-opacity:1;stroke-width:1.85671"
       d="m 216.23797,140.99707 a 135.46684,135.46208 0 0 0 -18.81864,1.47516 c -1.4832,4.83952 -2.80096,9.85372 -3.87636,15.03368 -7.35312,35.43932 -10.38848,92.36716 14.42124,151.93136 -0.0416,-3.70612 -2.3088,-90.33076 47.76476,-162.54568 a 135.46684,135.46208 0 0 0 -39.491,-5.8942 z m -24.76172,2.35512 a 135.46684,135.46208 0 0 0 -52.23894,21.76336 c 0.68096,5.22924 1.49472,10.41404 2.47745,15.50312 12.71123,65.83404 40.24265,109.4094 61.91733,132.08088 -10.61644,-25.13668 -17.21424,-54.46296 -19.60828,-80.89624 -2.26592,-25.07968 -0.7984,-50.44388 4.37436,-75.3668 0.93344,-4.49616 1.96992,-8.85664 3.07808,-13.08432 z m 71.16208,5.85836 c -24.1752,32.44264 -42.4834,74.60972 -47.83384,125.25712 13.12452,-29.51124 37.4356,-64.09588 69.05696,-91.68332 5.18316,-4.52016 10.50364,-8.84128 15.90844,-12.95856 a 135.46684,135.46208 0 0 0 -37.13156,-20.61524 z m -128.35587,19.58104 a 135.46684,135.46208 0 0 0 -32.58166,35.57852 c 3.78064,5.50796 7.73328,10.90584 11.89776,16.20452 0.6128,0.78396 1.24032,1.56792 1.8672,2.35192 0.256,0.3264 0.5264,0.66876 0.79744,0.99836 0.32768,0.41276 0.65568,0.81276 0.98368,1.21276 0.38496,0.48316 0.784,0.96956 1.18304,1.45272 0.0576,0.064 0.1152,0.128 0.1696,0.224 16.24531,19.72184 37.53566,41.3668 62.64465,63.73908 -17.49932,-24.45252 -35.18448,-59.72068 -44.67518,-108.92492 -0.81824,-4.23696 -1.58112,-8.51904 -2.28736,-12.82416 z m 169.78987,4.54768 c -5.68328,4.16816 -11.28928,8.63232 -16.76244,13.40652 -36.15296,31.54924 -62.51588,71.1628 -73.07536,103.79488 11.2862,-11.85588 30.11096,-30.29456 53.76644,-48.40588 20.8664,-15.97828 41.43012,-29.76084 61.49708,-39.96172 a 135.46684,135.46208 0 0 0 -25.42572,-28.8338 z m 27.95784,32.84356 c -36.08652,17.61632 -68.05992,44.57596 -90.52096,65.04944 5.67552,-2.71992 57.26572,-15.03848 108.68908,-14.79176 a 135.46684,135.46208 0 0 0 -18.16812,-50.25768 z m -233.340292,3.21012 a 135.46684,135.46208 0 0 0 -15.60816,42.60228 c 51.553122,45.14968 100.521332,68.07876 138.861412,83.85992 0.48448,0.192 1.02688,0.064 1.52576,0.128 -3.36304,-2.60792 -8.09488,-6.3268 -13.82348,-10.9724 -0.1856,-0.128 -0.3556,-0.256 -0.51232,-0.41276 -16.01732,-13.02512 -39.57328,-36.36668 -62.53046,-59.36584 -0.34208,-0.3552 -0.69824,-0.69756 -1.04032,-1.05276 -0.37056,-0.384 -0.75584,-0.75516 -1.1264,-1.13912 -12.45476,-12.5826 -23.39867,-24.73832 -32.7611,-36.4086 -0.028,-0.028 -0.0448,-0.064 -0.0704,-0.096 -0.71264,-0.91196 -1.43936,-1.81112 -2.13792,-2.70708 -3.70176,-4.7096 -7.28749,-9.5206 -10.776132,-14.43052 z m -16.74995,50.29896 a 135.46684,135.46208 0 0 0 -1.16864,16.76672 135.46684,135.46208 0 0 0 2.56768,26.1936 c 37.040992,11.42164 78.323602,22.45036 118.640002,30.79468 -33.95088,-15.49828 -76.34025,-37.87508 -120.038912,-73.755 z m 258.283402,4.0616 c -26.20588,-0.032 -60.023,3.11348 -99.21304,13.9486 21.05348,-0.3648 67.56516,-3.01108 110.24536,7.88964 a 135.46684,135.46208 0 0 0 0.44896,-9.13312 135.46684,135.46208 0 0 0 -0.592,-12.49776 c -3.46688,-0.128 -7.09696,-0.192 -10.88936,-0.224 z m -81.78472,19.27832 c 9.98944,6.38408 28.92768,15.78884 49.29132,32.3044 10.20176,8.27904 19.57052,16.561 28.07684,24.77316 a 135.46684,135.46208 0 0 0 14.68988,-46.629 c -33.0608,-8.59264 -68.6762,-9.89016 -92.05804,-10.44856 z m -23.9836,0.192 c -1.19808,0.008 -2.12352,0.024 -2.70784,0.064 h -2.536 c -2.25152,2.10872 -12.32648,12.39728 -15.29056,15.29032 -0.144,7.21028 0,13.87884 0,21.61648 10.61644,10.48792 11.99876,11.813 15.29056,15.28996 h 21.61752 c 5.65732,-6.24136 14.74904,-14.70568 15.29052,-15.28996 0.1152,-5.95628 0,-21.61648 0,-21.61648 -2.06624,-2.25272 -15.29052,-15.29032 -15.29052,-15.29032 -6.72256,0 -12.77944,-0.064 -16.37384,-0.064 z m 37.87712,15.42152 c 11.77084,17.3232 28.3234,44.74744 41.5194,71.59732 a 135.46684,135.46208 0 0 0 19.1842,-25.45728 c -9.73952,-9.48476 -19.64956,-18.07836 -28.65444,-25.37892 -11.64248,-9.43324 -22.80072,-14.33512 -32.04916,-20.76176 z m -1.06816,7.83776 0.2144,5.54284 c 0.3704,7.56676 0.55648,15.14792 0.55648,22.72876 0.036,22.28208 1.19936,44.38684 -1.07552,65.50384 a 135.46684,135.46208 0 0 0 37.3648,-24.64584 c -10.97644,-24.72932 -24.979,-50.73924 -37.05856,-69.13024 z m -185.998542,3.96756 a 135.46684,135.46208 0 0 0 16.318182,37.91316 c 44.42481,2.02552 86.93452,-0.128 123.63704,-7.0116 -22.78624,-1.44636 -77.29053,-12.80304 -139.955222,-30.90156 z m 181.494742,18.77464 c -8.99004,20.35124 -20.27708,50.4004 -39.6512,82.17232 a 135.46684,135.46208 0 0 0 34.46132,-7.44836 c 3.49652,-22.92908 5.2586,-46.7042 5.23308,-69.79228 -0.016,-1.63836 -0.016,-3.27764 -0.0448,-4.93072 z m -8.40712,5.81452 c -1.0688,1.19676 -2.1664,2.42232 -3.292,3.66228 -0.2144,0.45436 -0.55616,0.84156 -0.99776,1.11032 -18.01176,19.8188 -41.33152,42.8314 -69.31508,68.24836 a 135.46684,135.46208 0 0 0 31.4898,3.86964 135.46684,135.46208 0 0 0 4.34076,-0.224 h -2.76832 c 18.16912,-29.725 32.26324,-58.5812 40.5426,-76.67844 z m -17.24312,8.27904 c -14.81,3.49716 -65.2708,12.6514 -135.28056,11.41496 a 135.46684,135.46208 0 0 0 21.02067,23.32456 c 49.63193,-8.60352 90.02313,-21.4616 114.25989,-34.73952 z m -5.85676,8.96192 c -14.32268,7.00548 -50.20796,20.29204 -102.93205,30.40048 a 135.46684,135.46208 0 0 0 44.78181,23.45352 c 20.7956,-18.61052 42.66944,-37.65748 58.15036,-53.86328 z" />
  </g>
</svg>
