<?xml version="1.0" encoding="UTF-8" standalone="no"?>
<svg
   id="Camada_1"
   viewBox="0 0 530 530"
   version="1.1"
   sodipodi:docname="services-inner.svg"
   inkscape:version="1.2.1 (9c6d41e410, 2022-07-14)"
   width="530"
   height="530"
   xml:space="preserve"
   xmlns:inkscape="http://www.inkscape.org/namespaces/inkscape"
   xmlns:sodipodi="http://sodipodi.sourceforge.net/DTD/sodipodi-0.dtd"
   xmlns="http://www.w3.org/2000/svg"
   xmlns:svg="http://www.w3.org/2000/svg"><sodipodi:namedview
     id="namedview2210"
     pagecolor="#ffffff"
     bordercolor="#000000"
     borderopacity="0.25"
     inkscape:showpageshadow="2"
     inkscape:pageopacity="0.0"
     inkscape:pagecheckerboard="0"
     inkscape:deskcolor="#d1d1d1"
     showgrid="false"
     inkscape:zoom="1.0687095"
     inkscape:cx="428.55424"
     inkscape:cy="126.32057"
     inkscape:window-width="1920"
     inkscape:window-height="1017"
     inkscape:window-x="2552"
     inkscape:window-y="-8"
     inkscape:window-maximized="1"
     inkscape:current-layer="Camada_1" /><defs
     id="defs2113"><style
       id="style2102">.cls-1{clip-path:url(#clippath);}.cls-2,.cls-3{fill:none;}.cls-2,.cls-4,.cls-5,.cls-6,.cls-7{stroke-width:0px;}.cls-8{clip-path:url(#clippath-1);}.cls-9{clip-path:url(#clippath-2);}.cls-3{stroke:#1a1a1a;stroke-miterlimit:10;}.cls-4{fill:#73ad24;}.cls-5{fill:#662d80;}.cls-6{fill:#fff;}.cls-7{fill:#ed9118;}</style><clipPath
       id="clippath"><circle
         class="cls-2"
         cx="309.51001"
         cy="63.73"
         r="31.49"
         id="circle2104" /></clipPath><clipPath
       id="clippath-1"><circle
         class="cls-2"
         cx="507.51001"
         cy="386.73001"
         r="31.49"
         id="circle2107" /></clipPath><clipPath
       id="clippath-2"><circle
         class="cls-2"
         cx="92.510002"
         cy="387.73001"
         r="31.49"
         id="circle2110" /></clipPath><style
       id="style1875">.cls-1{clip-path:url(#clippath);}.cls-2,.cls-3{fill:none;}.cls-2,.cls-4,.cls-5,.cls-6,.cls-7{stroke-width:0px;}.cls-8{clip-path:url(#clippath-1);}.cls-9{clip-path:url(#clippath-2);}.cls-3{stroke:#1a1a1a;stroke-miterlimit:10;}.cls-4{fill:#73ad24;}.cls-5{fill:#662d80;}.cls-6{fill:#fff;}.cls-7{fill:#ed9118;}</style><clipPath
       id="clippath-29"><circle
         class="cls-2"
         cx="309.51001"
         cy="63.73"
         r="31.49"
         id="circle1877" /></clipPath><clipPath
       id="clippath-1-5"><circle
         class="cls-2"
         cx="507.51001"
         cy="386.73001"
         r="31.49"
         id="circle1880" /></clipPath><clipPath
       id="clippath-2-5"><circle
         class="cls-2"
         cx="92.510002"
         cy="387.73001"
         r="31.49"
         id="circle1883" /></clipPath></defs><circle
     class="cls-3"
     cx="265"
     cy="265"
     r="165.75999"
     id="circle1890" /><g
     id="g4063"
     transform="translate(-39.999972,-31.064291)"><line
       class="cls-3"
       x1="224.70045"
       y1="143.23999"
       x2="245.70045"
       y2="141.23999"
       id="line1892" /><line
       class="cls-3"
       x1="232.48045"
       y1="157.37"
       x2="245.92046"
       y2="141.10999"
       id="line1894" /></g><g
     id="g4059"
     transform="translate(-28.619047,-40.000002)"><line
       class="cls-3"
       x1="471.08047"
       y1="311.47998"
       x2="457.83047"
       y2="327.88998"
       id="line1896" /><line
       class="cls-3"
       x1="455.54047"
       y1="307.16"
       x2="457.77048"
       y2="328.13998"
       id="line1898" /></g><g
     id="g314"
     transform="translate(1.0902384)"><line
       class="cls-3"
       x1="138.45703"
       y1="385.45721"
       x2="132.07703"
       y2="365.34723"
       id="line1900" /><line
       class="cls-3"
       x1="150.63702"
       y1="374.94998"
       x2="131.90703"
       y2="365.25"
       id="line1902" /></g><g
     class="cls-8"
     clip-path="url(#clippath-1)"
     id="g1946"
     transform="translate(-46.799516,-28.260012)"><path
       class="cls-6"
       d="m 588.06,326.06 c 10.04,0 15.5,5.46 15.5,15.59 v 4.93 c 0,10.13 -5.46,15.59 -15.5,15.59 h -4.14 v 25.54 h -9.33 v -61.64 h 13.47 z m -4.14,27.47 h 3.78 c 4.49,0 6.52,-2.38 6.52,-7.57 v -3.7 c 0,-5.2 -2.02,-7.57 -6.52,-7.57 h -3.78 z"
       id="path1942" /><path
       class="cls-6"
       d="m 580.79,400.94 c 1.2,0 2.24,0.22 3.13,0.66 0.89,0.44 1.58,1.06 2.08,1.87 0.5,0.81 0.75,1.77 0.75,2.87 0,1.1 -0.25,2.07 -0.75,2.87 -0.5,0.8 -1.2,1.43 -2.08,1.87 -0.88,0.44 -1.93,0.66 -3.13,0.66 h -4.11 v 6.93 h -2.15 v -17.73 z m -0.32,8.79 c 1.39,0 2.42,-0.29 3.06,-0.87 0.64,-0.58 0.97,-1.42 0.97,-2.51 0,-1.09 -0.32,-1.95 -0.97,-2.52 -0.65,-0.57 -1.66,-0.86 -3.06,-0.86 h -3.79 v 6.77 h 3.79 z"
       id="path1944" /></g></svg>
