<?xml version="1.0" encoding="UTF-8" standalone="no"?>
<svg
   id="Camada_1"
   viewBox="0 0 520 520"
   version="1.1"
   sodipodi:docname="services-outer - Copia.svg"
   inkscape:version="1.2.1 (9c6d41e410, 2022-07-14)"
   width="520"
   height="520"
   xml:space="preserve"
   xmlns:inkscape="http://www.inkscape.org/namespaces/inkscape"
   xmlns:sodipodi="http://sodipodi.sourceforge.net/DTD/sodipodi-0.dtd"
   xmlns="http://www.w3.org/2000/svg"
   xmlns:svg="http://www.w3.org/2000/svg"><circle
     class="cls-3"
     cx="258.66"
     cy="258.66"
     id="circle2115"
     style="stroke-width:0.994208"
     r="229.5029" /><g
     id="g3994"
     transform="translate(-40.350008,-12.661646)"><g
       id="g3156"
       transform="translate(1.0000035,-15.586323)"><circle
         class="cls-4"
         cx="295"
         cy="63.73"
         r="31.49"
         id="circle2131" /><g
         class="cls-1"
         clip-path="url(#clippath)"
         id="g2163"
         transform="translate(-14.51001)"><path
           class="cls-6"
           d="m 364.74,66.18 c -14.46,-10.06 -37.95,-8.58 -46.67,-8.43 26.49,-7.32 44.68,-2.79 46.67,-2.2 v -2.61 0 c -18.2,-4.23 -44.29,1.83 -46.52,2.9 9.05,-8.25 23.33,-20.07 38.79,-23.6 0.1,-0.02 0.2,-0.05 0.3,-0.07 1.62,0.53 6.71,3.35 7.43,3.62 v -2.58 c -0.72,-0.27 -1.59,-0.54 -2.26,-0.8 -0.77,-0.3 -1.51,-0.58 -2.27,-0.86 1.46,-0.3 3.14,-0.52 4.53,-0.69 v -2.67 c -2.34,0.58 -5.11,1.86 -8.07,2.54 -9.75,2.22 -20.05,8.41 -30.61,16.5 -7,5.36 -12.56,10.81 -15.9,14.32 3.12,-9.65 10.92,-21.37 21.61,-30.7 10.8,-9.42 23.32,-14.84 32.97,-16.38 v -2.66 c -9.92,1.59 -22.98,8.27 -33.99,17.87 -9.35,8.16 -16.54,18.39 -20.42,27.12 2.63,-24.89 15.84,-42.87 30.02,-52.21 11.57,-2.77 19.45,0.36 24.39,2.43 V 4.46 c -4.52,-1.9 -10.94,-3.74 -20.51,-2.23 2.07,-1.34 6.41,-3.59 8.47,-4.42 h -5.09 C 307,16.85 308.29,65.62 308.31,67.14 300.97,49.52 301.87,32.69 304.04,22.21 306.78,8.99 314.68,-0.76 316.25,-2.19 h -3.51 c -2.26,2.06 -7.57,11.35 -10.22,24.08 -1.53,7.37 -1.96,14.87 -1.29,22.29 0.71,7.82 2.66,16.49 5.8,23.93 -6.41,-6.71 -14.55,-19.59 -18.31,-39.06 -2.01,-10.41 -1.88,-22.08 0.35,-31.23 h -2.63 c -2.28,9.36 -1.29,20.9 0.76,31.53 2.81,14.55 8.04,24.98 13.21,32.22 -7.43,-6.62 -13.72,-13.02 -18.53,-18.85 -0.02,-0.02 -0.03,-0.04 -0.05,-0.06 -0.12,-0.14 -0.24,-0.29 -0.35,-0.43 -0.1,-0.12 -0.19,-0.24 -0.29,-0.36 -0.08,-0.1 -0.16,-0.2 -0.24,-0.3 -0.19,-0.23 -0.37,-0.46 -0.55,-0.7 -9.39,-11.95 -15.22,-25.54 -21.43,-43.05 h -2.59 c 6.27,17.67 13.3,31.92 22.8,44.01 0.21,0.27 0.42,0.53 0.63,0.8 0,0 0.01,0.02 0.02,0.03 2.77,3.45 6.01,7.05 9.69,10.77 0.11,0.11 0.22,0.22 0.33,0.34 0.1,0.11 0.21,0.21 0.31,0.31 6.79,6.8 13.76,13.71 18.49,17.56 0.05,0.05 0.1,0.09 0.15,0.12 1.69,1.37 3.09,2.47 4.09,3.25 -0.15,-0.01 -0.31,0.02 -0.45,-0.03 C 294.32,67.52 268.17,54.66 243.7,18.2 242.17,12 242.37,4.71 242.06,-2.16 h -2.68 c 0.24,5.48 0.44,11.65 1.45,16.74 -3.18,-5.02 -5.79,-10.9 -8.67,-16.74 h -3.65 c 23.68,47.54 56.55,66.63 78.01,76.43 C 277.3,68.22 246.36,57.41 236.4,51.79 223.18,42.79 203.67,10.86 203.67,10.86 v 4.76 c 0.08,0.22 17.22,26.66 27.23,34.93 -11.15,-4.74 -21.93,-11.46 -27.23,-14.97 v 3.55 c 30.37,20.33 94.38,36.5 109.73,37.47 -31.49,5.91 -77.42,0.02 -109.73,-13.57 v 2.58 c 54.91,22.37 105.68,13.64 114.43,11.57 -18.32,10.03 -67.82,19.26 -114.43,8.74 v 3.76 c 59.85,9.39 102.99,-5.11 112.69,-9.85 -5.04,5.27 -12.38,11.57 -19.05,17.58 h 2.92 c 8.82,-7.95 16.11,-15.13 21.69,-21.27 0.13,-0.08 0.23,-0.19 0.3,-0.33 0.33,-0.37 0.66,-0.73 0.97,-1.08 -2.45,5.35 -6.62,13.89 -11.99,22.68 h 2.69 c 5.77,-9.43 9.12,-18.36 11.78,-24.4 0,0.49 0,0.97 0.01,1.46 0,7.6 -0.64,15.46 -1.92,22.94 -0.03,0.17 -0.06,-0.17 -0.09,0 h 1.53 c 0.04,-0.22 1.2,0.22 1.24,0 1.29,-7.25 0.8,-14.97 0.79,-22.76 0,-2.24 -0.05,-4.48 -0.16,-6.72 l -0.06,-1.64 c 5.42,8.25 12.16,21.7 15.08,31.12 h 2.61 c -3.25,-10.53 -12,-25.54 -17.37,-33.44 2.74,1.9 6.04,3.35 9.48,6.14 5.79,4.69 12.85,11.18 17.89,18.31 0,0 0.56,1.82 0.14,8.99 h 2.67 c -0.08,-0.79 -0.56,-5.17 -0.95,-6.99 0.77,1.37 2.75,5.6 3.32,6.99 h 2.39 c -1.91,-4.7 -6.61,-10.89 -11.19,-16.03 -3.65,-4.09 -8.11,-8.29 -13.28,-12.48 -6.02,-4.88 -11.62,-7.67 -14.58,-9.55 10.59,0.25 29.67,1.02 41.52,9.26 v -2.4 0 z M 325.5,63.92 c 0,0 0.03,4.63 0,6.39 -0.16,0.17 -2.85,2.68 -4.52,4.52 h -6.39 c -0.97,-1.03 -1.38,-1.42 -4.52,-4.52 0,-2.29 -0.04,-4.26 0,-6.39 0.88,-0.86 3.86,-3.9 4.52,-4.52 h 0.75 c 0.69,-0.04 2.99,0 5.64,0 0,0 3.91,3.86 4.52,4.52 z"
           id="path2133" /><path
           class="cls-6"
           d="m 390.06,3.06 c 10.04,0 15.5,5.46 15.5,15.59 v 4.93 c 0,10.13 -5.46,15.59 -15.5,15.59 h -4.14 v 25.54 h -9.33 V 3.06 Z m -4.14,27.47 h 3.78 c 4.49,0 6.52,-2.38 6.52,-7.57 v -3.7 c 0,-5.2 -2.02,-7.57 -6.52,-7.57 h -3.78 z"
           id="path2135" /><path
           class="cls-6"
           d="m 429.95,64.7 -2.02,-14 h -10.3 l -2.02,14 h -9.33 L 416.93,3.06 h 11.89 L 439.47,64.7 Z M 418.86,42.25 h 7.83 l -3.78,-25.98 h -0.27 z"
           id="path2137" /><path
           class="cls-6"
           d="m 471.07,55.89 v 8.8 H 446.15 V 3.06 h 9.33 v 52.83 h 15.58 z"
           id="path2139" /><path
           class="cls-6"
           d="M 507.27,64.7 V 21.9 h -0.18 l -7.75,33.99 h -5.55 L 486.04,21.9 h -0.18 v 42.79 h -8.8 V 3.06 h 12.24 l 7.31,33.11 h 0.18 L 504.01,3.06 H 516.6 V 64.7 Z"
           id="path2141" /><path
           class="cls-6"
           d="m 546.98,64.7 -2.03,-14 h -10.3 l -2.02,14 H 523.3 L 533.95,3.06 h 11.89 l 10.65,61.64 z m -11.1,-22.45 h 7.83 l -3.78,-25.98 h -0.27 z"
           id="path2143" /><path
           class="cls-6"
           d="m 382.79,77.94 c 1.2,0 2.24,0.22 3.13,0.66 0.89,0.44 1.58,1.06 2.08,1.87 0.5,0.81 0.75,1.77 0.75,2.87 0,1.1 -0.25,2.07 -0.75,2.87 -0.5,0.8 -1.2,1.43 -2.08,1.87 -0.88,0.44 -1.93,0.66 -3.13,0.66 h -4.11 v 6.93 h -2.15 V 77.94 Z m -0.32,8.79 c 1.39,0 2.42,-0.29 3.06,-0.87 0.64,-0.58 0.97,-1.42 0.97,-2.51 0,-1.09 -0.32,-1.95 -0.97,-2.52 -0.65,-0.57 -1.66,-0.86 -3.06,-0.86 h -3.79 v 6.77 h 3.79 z"
           id="path2145" /><path
           class="cls-6"
           d="m 402.32,77.94 c 1.81,0 3.26,0.47 4.35,1.4 1.09,0.93 1.64,2.2 1.64,3.79 0,1.59 -0.55,2.84 -1.65,3.72 -1.1,0.89 -2.56,1.33 -4.37,1.33 l -0.19,0.13 h -4.35 v 7.36 H 395.6 V 77.94 Z m -0.03,8.36 c 1.27,0 2.22,-0.27 2.84,-0.79 0.62,-0.52 0.93,-1.32 0.93,-2.38 0,-1.06 -0.31,-1.85 -0.93,-2.38 -0.62,-0.53 -1.56,-0.79 -2.84,-0.79 h -4.54 v 6.34 z m 1.23,0.43 5.86,8.95 h -2.55 l -5.1,-7.77 1.8,-1.18 v 0 z"
           id="path2147" /><path
           class="cls-6"
           d="m 423.15,77.68 c 1.68,0 3.14,0.37 4.37,1.12 1.23,0.74 2.17,1.8 2.85,3.16 0.67,1.36 1.01,2.98 1.01,4.86 0,1.88 -0.34,3.5 -1.01,4.86 -0.67,1.36 -1.62,2.41 -2.85,3.16 -1.23,0.74 -2.68,1.12 -4.37,1.12 -1.69,0 -3.14,-0.37 -4.37,-1.12 -1.23,-0.74 -2.17,-1.8 -2.85,-3.16 -0.67,-1.36 -1.01,-2.98 -1.01,-4.86 0,-1.88 0.34,-3.5 1.01,-4.86 0.67,-1.36 1.62,-2.41 2.85,-3.16 1.23,-0.74 2.68,-1.12 4.37,-1.12 z m 0,2.01 c -1.22,0 -2.28,0.28 -3.17,0.85 -0.9,0.56 -1.58,1.38 -2.07,2.44 -0.49,1.06 -0.72,2.34 -0.72,3.83 0,1.49 0.24,2.76 0.72,3.83 0.48,1.07 1.17,1.88 2.07,2.44 0.89,0.56 1.95,0.85 3.17,0.85 1.22,0 2.3,-0.28 3.18,-0.85 0.88,-0.57 1.57,-1.38 2.06,-2.44 0.49,-1.06 0.72,-2.34 0.72,-3.83 0,-1.49 -0.24,-2.76 -0.72,-3.83 -0.48,-1.07 -1.17,-1.88 -2.06,-2.44 -0.89,-0.56 -1.95,-0.85 -3.18,-0.85 z"
           id="path2149" /><path
           class="cls-6"
           d="m 444.51,77.94 c 2.78,0 4.96,0.77 6.54,2.3 1.58,1.53 2.38,3.72 2.38,6.57 0,2.85 -0.79,5.04 -2.38,6.57 -1.59,1.53 -3.77,2.3 -6.54,2.3 h -5.72 V 77.95 h 5.72 z m 0.21,15.72 c 2.02,0 3.6,-0.6 4.74,-1.81 1.14,-1.21 1.71,-2.89 1.71,-5.04 0,-2.15 -0.57,-3.83 -1.71,-5.04 -1.14,-1.21 -2.72,-1.81 -4.74,-1.81 h -3.79 v 13.71 h 3.79 z"
           id="path2151" /><path
           class="cls-6"
           d="m 474.42,77.94 v 11.13 c 0,2.28 -0.6,3.99 -1.8,5.15 -1.2,1.16 -2.92,1.73 -5.16,1.73 -2.24,0 -3.94,-0.58 -5.15,-1.73 -1.21,-1.15 -1.81,-2.87 -1.81,-5.15 V 77.94 h 2.15 v 10.59 c 0,1.85 0.39,3.21 1.17,4.08 0.78,0.88 1.99,1.31 3.64,1.31 1.65,0 2.86,-0.44 3.64,-1.31 0.78,-0.88 1.17,-2.24 1.17,-4.08 V 77.94 Z"
           id="path2153" /><path
           class="cls-6"
           d="m 496.85,91.14 c -0.38,1 -0.91,1.87 -1.61,2.59 -0.7,0.72 -1.52,1.28 -2.46,1.65 -0.94,0.37 -1.97,0.56 -3.08,0.56 -1.69,0 -3.14,-0.37 -4.37,-1.12 -1.23,-0.74 -2.17,-1.8 -2.85,-3.16 -0.67,-1.36 -1.01,-2.98 -1.01,-4.86 0,-1.88 0.34,-3.5 1.01,-4.86 0.67,-1.36 1.62,-2.41 2.85,-3.16 1.23,-0.75 2.66,-1.12 4.31,-1.12 1.15,0 2.17,0.16 3.06,0.47 0.89,0.31 1.66,0.78 2.3,1.4 0.64,0.62 1.14,1.37 1.52,2.27 l -2.12,0.99 c -0.4,-1.02 -0.97,-1.8 -1.71,-2.32 -0.74,-0.52 -1.71,-0.79 -2.89,-0.79 -1.18,0 -2.26,0.28 -3.17,0.85 -0.91,0.56 -1.63,1.37 -2.14,2.43 -0.51,1.06 -0.77,2.34 -0.77,3.84 0,1.5 0.24,2.76 0.72,3.83 0.48,1.07 1.17,1.88 2.07,2.44 0.89,0.56 1.95,0.85 3.17,0.85 1.22,0 2.21,-0.3 3.09,-0.9 0.88,-0.6 1.51,-1.5 1.91,-2.7 l 2.15,0.8 v 0 z m -8.68,4.43 1.13,-0.67 c 1.06,0.34 1.81,0.8 2.26,1.38 0.45,0.58 0.67,1.27 0.67,2.06 0,0.86 -0.3,1.59 -0.91,2.2 -0.61,0.61 -1.39,0.91 -2.34,0.91 -0.56,0 -1.05,-0.07 -1.47,-0.21 -0.42,-0.14 -0.78,-0.33 -1.09,-0.56 l 0.51,-1.56 c 0.25,0.16 0.51,0.3 0.79,0.43 0.28,0.13 0.62,0.19 1.01,0.19 0.5,0 0.91,-0.16 1.23,-0.48 0.32,-0.32 0.48,-0.79 0.48,-1.4 0,-0.47 -0.17,-0.87 -0.51,-1.21 -0.34,-0.34 -0.93,-0.7 -1.77,-1.07 v 0 z"
           id="path2155" /><path
           class="cls-6"
           d="m 510.82,77.68 c 1.68,0 3.14,0.37 4.37,1.12 1.23,0.75 2.17,1.8 2.85,3.16 0.67,1.36 1.01,2.98 1.01,4.86 0,1.88 -0.34,3.5 -1.01,4.86 -0.67,1.36 -1.62,2.41 -2.85,3.16 -1.23,0.74 -2.68,1.12 -4.37,1.12 -1.69,0 -3.14,-0.37 -4.37,-1.12 -1.23,-0.74 -2.17,-1.8 -2.85,-3.16 -0.67,-1.36 -1.01,-2.98 -1.01,-4.86 0,-1.88 0.34,-3.5 1.01,-4.86 0.67,-1.36 1.62,-2.41 2.85,-3.16 1.23,-0.75 2.68,-1.12 4.37,-1.12 z m 0,2.01 c -1.22,0 -2.28,0.28 -3.17,0.85 -0.89,0.57 -1.58,1.38 -2.07,2.44 -0.48,1.07 -0.72,2.34 -0.72,3.83 0,1.49 0.24,2.76 0.72,3.83 0.48,1.07 1.17,1.88 2.07,2.44 0.9,0.56 1.95,0.85 3.17,0.85 1.22,0 2.3,-0.28 3.18,-0.85 0.88,-0.57 1.57,-1.38 2.06,-2.44 0.49,-1.06 0.72,-2.34 0.72,-3.83 0,-1.49 -0.24,-2.76 -0.72,-3.83 -0.48,-1.07 -1.17,-1.88 -2.06,-2.44 -0.89,-0.56 -1.95,-0.85 -3.18,-0.85 z m 4.84,-7.58 c -0.05,0.79 -0.2,1.45 -0.44,1.99 -0.24,0.54 -0.57,0.94 -0.99,1.21 -0.42,0.27 -0.94,0.4 -1.57,0.4 -0.5,0 -0.93,-0.09 -1.28,-0.28 -0.35,-0.19 -0.65,-0.4 -0.9,-0.63 -0.25,-0.23 -0.5,-0.44 -0.74,-0.63 -0.24,-0.19 -0.51,-0.28 -0.79,-0.28 -0.4,0 -0.69,0.16 -0.89,0.5 -0.2,0.33 -0.34,0.78 -0.43,1.36 h -1.69 c 0.09,-1.18 0.38,-2.08 0.87,-2.69 0.49,-0.61 1.21,-0.91 2.16,-0.91 0.48,0 0.9,0.09 1.25,0.28 0.35,0.19 0.65,0.4 0.91,0.63 0.26,0.23 0.51,0.44 0.74,0.63 0.23,0.19 0.48,0.28 0.75,0.28 0.41,0 0.72,-0.16 0.91,-0.5 0.19,-0.34 0.34,-0.78 0.43,-1.36 h 1.69 v 0 z"
           id="path2157" /><path
           class="cls-6"
           d="M 526.46,95.68 V 77.95 h 12.44 v 2.01 h -10.29 v 5.72 h 8.01 v 2.01 h -8.01 v 5.96 h 10.7 v 2.01 h -12.85 z"
           id="path2159" /><path
           class="cls-6"
           d="m 551.99,77.68 c 1.56,0 2.9,0.32 4.03,0.95 1.13,0.63 2.07,1.57 2.82,2.81 l -1.8,1.4 c -0.66,-1.15 -1.41,-1.96 -2.24,-2.43 -0.83,-0.48 -1.84,-0.71 -3.02,-0.71 -0.95,0 -1.73,0.13 -2.35,0.4 -0.62,0.27 -1.07,0.62 -1.36,1.06 -0.29,0.44 -0.43,0.94 -0.43,1.49 0,0.63 0.2,1.18 0.59,1.65 0.39,0.48 1.18,0.85 2.36,1.12 l 3.84,0.86 c 1.7,0.38 2.89,0.94 3.56,1.71 0.67,0.77 1.01,1.71 1.01,2.84 0,1 -0.28,1.9 -0.85,2.67 -0.57,0.77 -1.36,1.38 -2.38,1.81 -1.02,0.43 -2.22,0.64 -3.6,0.64 -1.29,0 -2.42,-0.17 -3.4,-0.52 -0.98,-0.35 -1.81,-0.82 -2.51,-1.41 -0.7,-0.59 -1.27,-1.25 -1.72,-1.99 l 1.88,-1.53 c 0.34,0.68 0.78,1.28 1.31,1.8 0.54,0.52 1.19,0.92 1.95,1.21 0.76,0.29 1.64,0.43 2.62,0.43 0.91,0 1.71,-0.11 2.38,-0.34 0.67,-0.22 1.19,-0.56 1.55,-0.99 0.36,-0.43 0.54,-0.97 0.54,-1.6 0,-0.57 -0.19,-1.09 -0.56,-1.55 -0.37,-0.46 -1.08,-0.8 -2.12,-1.03 l -4.16,-0.94 c -1.09,-0.25 -1.98,-0.59 -2.65,-1.04 -0.67,-0.44 -1.15,-0.96 -1.45,-1.56 -0.3,-0.6 -0.44,-1.25 -0.44,-1.95 0,-0.95 0.27,-1.82 0.79,-2.62 0.53,-0.8 1.29,-1.44 2.28,-1.92 0.99,-0.48 2.17,-0.72 3.53,-0.72 z"
           id="path2161" /></g></g><g
       id="g3182"
       transform="translate(-2.9999965,-11.586323)"><circle
         class="cls-7"
         cx="507.51001"
         cy="386.73001"
         r="31.49"
         id="circle2165" /><g
         class="cls-8"
         clip-path="url(#clippath-1)"
         id="g2173"><path
           class="cls-6"
           d="m 562.74,389.18 c -14.46,-10.06 -37.95,-8.58 -46.67,-8.43 26.49,-7.32 44.68,-2.79 46.67,-2.2 v -2.61 0 c -18.2,-4.23 -44.29,1.83 -46.52,2.9 9.05,-8.25 23.33,-20.07 38.79,-23.6 0.1,-0.02 0.2,-0.05 0.3,-0.07 1.62,0.53 6.71,3.35 7.43,3.62 v -2.58 c -0.72,-0.27 -1.59,-0.54 -2.26,-0.8 -0.77,-0.3 -1.51,-0.58 -2.27,-0.86 1.46,-0.3 3.14,-0.52 4.53,-0.69 v -2.67 c -2.34,0.58 -5.11,1.86 -8.07,2.54 -9.75,2.22 -20.05,8.41 -30.61,16.5 -7,5.36 -12.56,10.81 -15.9,14.32 3.12,-9.65 10.92,-21.37 21.61,-30.7 10.8,-9.42 23.32,-14.84 32.97,-16.38 v -2.66 c -9.92,1.59 -22.98,8.27 -33.99,17.87 -9.35,8.16 -16.54,18.39 -20.42,27.12 2.63,-24.89 15.84,-42.87 30.02,-52.21 11.57,-2.77 19.45,0.36 24.39,2.43 v -2.56 c -4.52,-1.9 -10.94,-3.74 -20.51,-2.23 2.07,-1.34 6.41,-3.59 8.47,-4.42 h -5.09 c -40.61,19.04 -39.32,67.81 -39.3,69.33 -7.34,-17.62 -6.44,-34.45 -4.27,-44.93 2.74,-13.22 10.64,-22.97 12.21,-24.4 h -3.51 c -2.26,2.06 -7.57,11.35 -10.22,24.08 -1.53,7.37 -1.96,14.87 -1.29,22.29 0.71,7.82 2.66,16.49 5.8,23.93 -6.41,-6.71 -14.55,-19.59 -18.31,-39.06 -2.01,-10.41 -1.88,-22.08 0.35,-31.23 h -2.63 c -2.28,9.36 -1.29,20.9 0.76,31.53 2.81,14.55 8.04,24.98 13.21,32.22 -7.43,-6.62 -13.72,-13.02 -18.53,-18.85 -0.02,-0.02 -0.03,-0.04 -0.05,-0.06 -0.12,-0.14 -0.24,-0.29 -0.35,-0.43 -0.1,-0.12 -0.19,-0.24 -0.29,-0.36 -0.08,-0.1 -0.16,-0.2 -0.24,-0.3 -0.19,-0.23 -0.37,-0.46 -0.55,-0.7 -9.39,-11.95 -15.22,-25.54 -21.43,-43.05 h -2.59 c 6.27,17.67 13.3,31.92 22.8,44.01 0.21,0.27 0.42,0.53 0.63,0.8 0,0 0.01,0.02 0.02,0.03 2.77,3.45 6.01,7.05 9.69,10.77 0.11,0.11 0.22,0.22 0.33,0.34 0.1,0.11 0.21,0.21 0.31,0.31 6.79,6.8 13.76,13.71 18.49,17.56 0.05,0.05 0.1,0.09 0.15,0.12 1.69,1.37 3.09,2.47 4.09,3.25 -0.15,-0.01 -0.31,0.02 -0.45,-0.03 -18.12,-7.46 -44.27,-20.32 -68.74,-56.78 -1.53,-6.2 -1.33,-13.49 -1.64,-20.36 h -2.68 c 0.24,5.48 0.44,11.65 1.45,16.74 -3.18,-5.02 -5.79,-10.9 -8.67,-16.74 h -3.65 c 23.68,47.54 56.55,66.63 78.01,76.43 -29.22,-6.05 -60.16,-16.86 -70.12,-22.48 -13.22,-9 -32.73,-40.93 -32.73,-40.93 v 4.76 c 0.08,0.22 17.22,26.66 27.23,34.93 -11.15,-4.74 -21.93,-11.46 -27.23,-14.97 v 3.55 c 30.37,20.33 94.38,36.5 109.73,37.47 -31.49,5.91 -77.42,0.02 -109.73,-13.57 v 2.58 c 54.91,22.37 105.68,13.64 114.43,11.57 -18.32,10.03 -67.82,19.26 -114.43,8.74 v 3.76 c 59.85,9.39 102.99,-5.11 112.69,-9.85 -5.04,5.27 -12.38,11.57 -19.05,17.58 h 2.92 c 8.82,-7.95 16.11,-15.13 21.69,-21.27 0.13,-0.08 0.23,-0.19 0.3,-0.33 0.33,-0.37 0.66,-0.73 0.97,-1.08 -2.45,5.35 -6.62,13.89 -11.99,22.68 h 2.69 c 5.77,-9.43 9.12,-18.36 11.78,-24.4 0,0.49 0,0.97 0.01,1.46 0,7.6 -0.64,15.46 -1.92,22.94 -0.03,0.17 -0.06,-0.17 -0.09,0 h 1.53 c 0.04,-0.22 1.2,0.22 1.24,0 1.29,-7.25 0.8,-14.97 0.79,-22.76 0,-2.24 -0.05,-4.48 -0.16,-6.72 l -0.06,-1.64 c 5.42,8.25 12.16,21.7 15.08,31.12 h 2.61 c -3.25,-10.53 -12,-25.54 -17.37,-33.44 2.74,1.9 6.04,3.35 9.48,6.14 5.79,4.69 12.85,11.18 17.89,18.31 0,0 0.56,1.82 0.14,8.99 h 2.67 c -0.08,-0.79 -0.56,-5.17 -0.95,-6.99 0.77,1.37 2.75,5.6 3.32,6.99 h 2.39 c -1.91,-4.7 -6.61,-10.89 -11.19,-16.03 -3.65,-4.09 -8.11,-8.29 -13.28,-12.48 -6.02,-4.88 -11.62,-7.67 -14.58,-9.55 10.59,0.25 29.67,1.02 41.52,9.26 v -2.4 0 z m -39.24,-2.26 c 0,0 0.03,4.63 0,6.39 -0.16,0.17 -2.85,2.68 -4.52,4.52 h -6.39 c -0.97,-1.03 -1.38,-1.42 -4.52,-4.52 0,-2.29 -0.04,-4.26 0,-6.39 0.88,-0.86 3.86,-3.9 4.52,-4.52 h 0.75 c 0.69,-0.04 2.99,0 5.64,0 0,0 3.91,3.86 4.52,4.52 z"
           id="path2167" /><path
           class="cls-6"
           d="m 588.06,326.06 c 10.04,0 15.5,5.46 15.5,15.59 v 4.93 c 0,10.13 -5.46,15.59 -15.5,15.59 h -4.14 v 25.54 h -9.33 v -61.64 h 13.47 z m -4.14,27.47 h 3.78 c 4.49,0 6.52,-2.38 6.52,-7.57 v -3.7 c 0,-5.2 -2.02,-7.57 -6.52,-7.57 h -3.78 z"
           id="path2169" /><path
           class="cls-6"
           d="m 580.79,400.94 c 1.2,0 2.24,0.22 3.13,0.66 0.89,0.44 1.58,1.06 2.08,1.87 0.5,0.81 0.75,1.77 0.75,2.87 0,1.1 -0.25,2.07 -0.75,2.87 -0.5,0.8 -1.2,1.43 -2.08,1.87 -0.88,0.44 -1.93,0.66 -3.13,0.66 h -4.11 v 6.93 h -2.15 v -17.73 z m -0.32,8.79 c 1.39,0 2.42,-0.29 3.06,-0.87 0.64,-0.58 0.97,-1.42 0.97,-2.51 0,-1.09 -0.32,-1.95 -0.97,-2.52 -0.65,-0.57 -1.66,-0.86 -3.06,-0.86 h -3.79 v 6.77 h 3.79 z"
           id="path2171" /></g></g><g
       id="g3175"
       transform="translate(1.0000035,-9.5863228)"><circle
         class="cls-5"
         cx="92.510002"
         cy="387.73001"
         r="31.49"
         id="circle2175" /><g
         class="cls-9"
         clip-path="url(#clippath-2)"
         id="g2207"><path
           class="cls-6"
           d="m 147.74,390.18 c -14.46,-10.06 -37.95,-8.58 -46.67,-8.43 26.49,-7.32 44.68,-2.79 46.67,-2.2 v -2.61 0 c -18.2,-4.23 -44.29,1.83 -46.52,2.9 9.05,-8.25 23.33,-20.07 38.79,-23.6 0.1,-0.02 0.2,-0.05 0.3,-0.07 1.62,0.53 6.71,3.35 7.43,3.62 v -2.58 c -0.72,-0.27 -1.59,-0.54 -2.26,-0.8 -0.77,-0.3 -1.51,-0.58 -2.27,-0.86 1.46,-0.3 3.14,-0.52 4.53,-0.69 v -2.67 c -2.34,0.58 -5.11,1.86 -8.07,2.54 -9.75,2.22 -20.05,8.41 -30.61,16.5 -7,5.36 -12.56,10.81 -15.9,14.32 3.12,-9.65 10.92,-21.37 21.61,-30.7 10.8,-9.42 23.32,-14.84 32.97,-16.38 v -2.66 c -9.92,1.59 -22.98,8.27 -33.99,17.87 -9.35,8.16 -16.54,18.39 -20.42,27.12 2.63,-24.89 15.84,-42.87 30.02,-52.21 11.57,-2.77 19.45,0.36 24.39,2.43 v -2.56 c -4.52,-1.9 -10.94,-3.74 -20.51,-2.23 2.07,-1.34 6.41,-3.59 8.47,-4.42 h -5.09 c -40.61,19.04 -39.32,67.81 -39.3,69.33 -7.34,-17.62 -6.44,-34.45 -4.27,-44.93 2.74,-13.22 10.64,-22.97 12.21,-24.4 h -3.51 c -2.26,2.06 -7.57,11.35 -10.22,24.08 -1.53,7.37 -1.96,14.87 -1.29,22.29 0.71,7.82 2.66,16.49 5.8,23.93 -6.41,-6.71 -14.55,-19.59 -18.31,-39.06 -2.01,-10.41 -1.88,-22.08 0.35,-31.23 h -2.63 c -2.28,9.36 -1.29,20.9 0.76,31.53 2.81,14.55 8.04,24.98 13.21,32.22 -7.43,-6.62 -13.72,-13.02 -18.53,-18.85 -0.02,-0.02 -0.03,-0.04 -0.05,-0.06 -0.12,-0.14 -0.24,-0.29 -0.35,-0.43 -0.1,-0.12 -0.19,-0.24 -0.29,-0.36 -0.08,-0.1 -0.16,-0.2 -0.24,-0.3 -0.19,-0.23 -0.37,-0.46 -0.55,-0.7 -9.39,-11.95 -15.22,-25.54 -21.43,-43.05 h -2.59 c 6.27,17.67 13.3,31.92 22.8,44.01 0.21,0.27 0.42,0.53 0.63,0.8 0,0 0.01,0.02 0.02,0.03 2.77,3.45 6.01,7.05 9.69,10.77 0.11,0.11 0.22,0.22 0.33,0.34 0.1,0.11 0.21,0.21 0.31,0.31 6.79,6.8 13.76,13.71 18.49,17.56 0.05,0.05 0.1,0.09 0.15,0.12 1.69,1.37 3.09,2.47 4.09,3.25 -0.15,-0.01 -0.31,0.02 -0.45,-0.03 C 77.32,391.52 51.17,378.66 26.7,342.2 25.17,336 25.37,328.71 25.06,321.84 h -2.68 c 0.24,5.48 0.44,11.65 1.45,16.74 -3.18,-5.02 -5.79,-10.9 -8.67,-16.74 h -3.65 c 23.68,47.54 56.55,66.63 78.01,76.43 -29.22,-6.05 -60.16,-16.86 -70.12,-22.48 -13.22,-9 -32.73,-40.93 -32.73,-40.93 v 4.76 c 0.08,0.22 17.22,26.66 27.23,34.93 -11.15,-4.74 -21.93,-11.46 -27.23,-14.97 v 3.55 c 30.37,20.33 94.38,36.5 109.73,37.47 -31.49,5.91 -77.42,0.02 -109.73,-13.57 v 2.58 c 54.91,22.37 105.68,13.64 114.43,11.57 -18.32,10.03 -67.82,19.26 -114.43,8.74 v 3.76 c 59.85,9.39 102.99,-5.11 112.69,-9.85 -5.04,5.27 -12.38,11.57 -19.05,17.58 h 2.92 c 8.82,-7.95 16.11,-15.13 21.69,-21.27 0.13,-0.08 0.23,-0.19 0.3,-0.33 0.33,-0.37 0.66,-0.73 0.97,-1.08 -2.45,5.35 -6.62,13.89 -11.99,22.68 h 2.69 c 5.77,-9.43 9.12,-18.36 11.78,-24.4 0,0.49 0,0.97 0.01,1.46 0,7.6 -0.64,15.46 -1.92,22.94 -0.03,0.17 -0.06,-0.17 -0.09,0 h 1.53 c 0.04,-0.22 1.2,0.22 1.24,0 1.29,-7.25 0.8,-14.97 0.79,-22.76 0,-2.24 -0.05,-4.48 -0.16,-6.72 l -0.06,-1.64 c 5.42,8.25 12.16,21.7 15.08,31.12 h 2.61 c -3.25,-10.53 -12,-25.54 -17.37,-33.44 2.74,1.9 6.04,3.35 9.48,6.14 5.79,4.69 12.85,11.18 17.89,18.31 0,0 0.56,1.82 0.14,8.99 h 2.67 c -0.08,-0.79 -0.56,-5.17 -0.95,-6.99 0.77,1.37 2.75,5.6 3.32,6.99 h 2.39 c -1.91,-4.7 -6.61,-10.89 -11.19,-16.03 -3.65,-4.09 -8.11,-8.29 -13.28,-12.48 -6.02,-4.88 -11.62,-7.67 -14.58,-9.55 10.59,0.25 29.67,1.02 41.52,9.26 v -2.4 0 z m -39.24,-2.26 c 0,0 0.03,4.63 0,6.39 -0.16,0.17 -2.85,2.68 -4.52,4.52 h -6.39 c -0.97,-1.03 -1.38,-1.42 -4.52,-4.52 0,-2.29 -0.04,-4.26 0,-6.39 0.88,-0.86 3.86,-3.9 4.52,-4.52 h 0.75 c 0.69,-0.04 2.99,0 5.64,0 0,0 3.91,3.86 4.52,4.52 z"
           id="path2177" /><path
           class="cls-6"
           d="m 173.06,327.06 c 10.04,0 15.5,5.46 15.5,15.59 v 4.93 c 0,10.13 -5.46,15.59 -15.5,15.59 h -4.14 v 25.54 h -9.33 v -61.64 h 13.47 z m -4.14,27.47 h 3.78 c 4.49,0 6.52,-2.38 6.52,-7.57 v -3.7 c 0,-5.2 -2.02,-7.57 -6.52,-7.57 h -3.78 z"
           id="path2179" /><path
           class="cls-6"
           d="m 212.95,388.7 -2.02,-14 h -10.3 l -2.02,14 h -9.33 l 10.65,-61.64 h 11.89 l 10.65,61.64 z m -11.09,-22.45 h 7.83 l -3.78,-25.98 h -0.27 z"
           id="path2181" /><path
           class="cls-6"
           d="m 254.07,379.89 v 8.8 h -24.92 v -61.64 h 9.33 v 52.83 h 15.58 z"
           id="path2183" /><path
           class="cls-6"
           d="m 290.27,388.7 v -42.8 h -0.18 l -7.75,33.99 h -5.55 l -7.75,-33.99 h -0.18 v 42.79 h -8.8 v -61.64 h 12.24 l 7.31,33.11 h 0.18 l 7.22,-33.11 h 12.59 v 61.64 h -9.33 v 0 z"
           id="path2185" /><path
           class="cls-6"
           d="m 329.98,388.7 -2.03,-14 h -10.3 l -2.02,14 h -9.33 l 10.65,-61.64 h 11.89 l 10.65,61.64 z m -11.1,-22.45 h 7.83 l -3.78,-25.98 h -0.27 z"
           id="path2187" /><path
           class="cls-6"
           d="m 165.79,401.94 c 1.2,0 2.24,0.22 3.13,0.66 0.89,0.44 1.58,1.06 2.08,1.87 0.5,0.81 0.75,1.77 0.75,2.87 0,1.1 -0.25,2.07 -0.75,2.87 -0.5,0.8 -1.2,1.43 -2.08,1.87 -0.88,0.44 -1.93,0.66 -3.13,0.66 h -4.11 v 6.93 h -2.15 v -17.73 z m -0.32,8.79 c 1.39,0 2.42,-0.29 3.06,-0.87 0.64,-0.58 0.97,-1.42 0.97,-2.51 0,-1.09 -0.32,-1.95 -0.97,-2.52 -0.65,-0.57 -1.66,-0.86 -3.06,-0.86 h -3.79 v 6.77 h 3.79 z"
           id="path2189" /><path
           class="cls-6"
           d="m 185.32,401.94 c 1.81,0 3.26,0.47 4.35,1.4 1.09,0.93 1.64,2.2 1.64,3.79 0,1.59 -0.55,2.84 -1.65,3.72 -1.1,0.89 -2.56,1.33 -4.37,1.33 l -0.19,0.13 h -4.35 v 7.36 h -2.15 v -17.73 z m -0.03,8.36 c 1.27,0 2.22,-0.27 2.84,-0.79 0.62,-0.52 0.93,-1.32 0.93,-2.38 0,-1.06 -0.31,-1.85 -0.93,-2.38 -0.62,-0.53 -1.56,-0.79 -2.84,-0.79 h -4.54 v 6.34 z m 1.23,0.43 5.86,8.95 h -2.55 l -5.1,-7.77 1.8,-1.18 v 0 z"
           id="path2191" /><path
           class="cls-6"
           d="m 206.15,401.68 c 1.68,0 3.14,0.37 4.37,1.12 1.23,0.74 2.17,1.8 2.85,3.16 0.67,1.36 1.01,2.98 1.01,4.86 0,1.88 -0.34,3.5 -1.01,4.86 -0.67,1.36 -1.62,2.41 -2.85,3.16 -1.23,0.74 -2.68,1.12 -4.37,1.12 -1.69,0 -3.14,-0.37 -4.37,-1.12 -1.23,-0.74 -2.17,-1.8 -2.85,-3.16 -0.67,-1.36 -1.01,-2.98 -1.01,-4.86 0,-1.88 0.34,-3.5 1.01,-4.86 0.67,-1.36 1.62,-2.41 2.85,-3.16 1.23,-0.74 2.68,-1.12 4.37,-1.12 z m 0,2.01 c -1.22,0 -2.28,0.28 -3.17,0.85 -0.9,0.56 -1.58,1.38 -2.07,2.44 -0.49,1.06 -0.72,2.34 -0.72,3.83 0,1.49 0.24,2.76 0.72,3.83 0.48,1.07 1.17,1.88 2.07,2.44 0.89,0.56 1.95,0.85 3.17,0.85 1.22,0 2.3,-0.28 3.18,-0.85 0.88,-0.57 1.57,-1.38 2.06,-2.44 0.49,-1.06 0.72,-2.34 0.72,-3.83 0,-1.49 -0.24,-2.76 -0.72,-3.83 -0.48,-1.07 -1.17,-1.88 -2.06,-2.44 -0.89,-0.56 -1.95,-0.85 -3.18,-0.85 z"
           id="path2193" /><path
           class="cls-6"
           d="m 227.51,401.94 c 2.78,0 4.96,0.77 6.54,2.3 1.58,1.53 2.38,3.72 2.38,6.57 0,2.85 -0.79,5.04 -2.38,6.57 -1.59,1.53 -3.77,2.3 -6.54,2.3 h -5.72 v -17.73 h 5.72 z m 0.21,15.72 c 2.02,0 3.6,-0.6 4.74,-1.81 1.14,-1.21 1.71,-2.89 1.71,-5.04 0,-2.15 -0.57,-3.83 -1.71,-5.04 -1.14,-1.21 -2.72,-1.81 -4.74,-1.81 h -3.79 v 13.71 h 3.79 z"
           id="path2195" /><path
           class="cls-6"
           d="m 257.42,401.94 v 11.13 c 0,2.28 -0.6,3.99 -1.8,5.15 -1.2,1.16 -2.92,1.73 -5.16,1.73 -2.24,0 -3.94,-0.58 -5.15,-1.73 -1.21,-1.15 -1.81,-2.87 -1.81,-5.15 v -11.13 h 2.15 v 10.59 c 0,1.85 0.39,3.21 1.17,4.08 0.78,0.88 1.99,1.31 3.64,1.31 1.65,0 2.86,-0.44 3.64,-1.31 0.78,-0.88 1.17,-2.24 1.17,-4.08 v -10.59 z"
           id="path2197" /><path
           class="cls-6"
           d="m 279.85,415.14 c -0.38,1 -0.91,1.87 -1.61,2.59 -0.7,0.72 -1.52,1.28 -2.46,1.65 -0.94,0.37 -1.97,0.56 -3.08,0.56 -1.69,0 -3.14,-0.37 -4.37,-1.12 -1.23,-0.74 -2.17,-1.8 -2.85,-3.16 -0.67,-1.36 -1.01,-2.98 -1.01,-4.86 0,-1.88 0.34,-3.5 1.01,-4.86 0.67,-1.36 1.62,-2.41 2.85,-3.16 1.23,-0.75 2.66,-1.12 4.31,-1.12 1.15,0 2.17,0.16 3.06,0.47 0.89,0.31 1.66,0.78 2.3,1.4 0.64,0.62 1.14,1.37 1.52,2.27 l -2.12,0.99 c -0.4,-1.02 -0.97,-1.8 -1.71,-2.32 -0.74,-0.52 -1.71,-0.79 -2.89,-0.79 -1.18,0 -2.26,0.28 -3.17,0.85 -0.91,0.56 -1.63,1.37 -2.14,2.43 -0.51,1.06 -0.77,2.34 -0.77,3.84 0,1.5 0.24,2.76 0.72,3.83 0.48,1.07 1.17,1.88 2.07,2.44 0.89,0.56 1.95,0.85 3.17,0.85 1.22,0 2.21,-0.3 3.09,-0.9 0.88,-0.6 1.51,-1.5 1.91,-2.7 l 2.15,0.8 v 0 z m -8.68,4.43 1.13,-0.67 c 1.06,0.34 1.81,0.8 2.26,1.38 0.45,0.58 0.67,1.27 0.67,2.06 0,0.86 -0.3,1.59 -0.91,2.2 -0.61,0.61 -1.39,0.91 -2.34,0.91 -0.56,0 -1.05,-0.07 -1.47,-0.21 -0.42,-0.14 -0.78,-0.33 -1.09,-0.56 l 0.51,-1.56 c 0.25,0.16 0.51,0.3 0.79,0.43 0.28,0.13 0.62,0.19 1.01,0.19 0.5,0 0.91,-0.16 1.23,-0.48 0.32,-0.32 0.48,-0.79 0.48,-1.4 0,-0.47 -0.17,-0.87 -0.51,-1.21 -0.34,-0.34 -0.93,-0.7 -1.77,-1.07 v 0 z"
           id="path2199" /><path
           class="cls-6"
           d="m 293.82,401.68 c 1.68,0 3.14,0.37 4.37,1.12 1.23,0.75 2.17,1.8 2.85,3.16 0.67,1.36 1.01,2.98 1.01,4.86 0,1.88 -0.34,3.5 -1.01,4.86 -0.67,1.36 -1.62,2.41 -2.85,3.16 -1.23,0.74 -2.68,1.12 -4.37,1.12 -1.69,0 -3.14,-0.37 -4.37,-1.12 -1.23,-0.74 -2.17,-1.8 -2.85,-3.16 -0.67,-1.36 -1.01,-2.98 -1.01,-4.86 0,-1.88 0.34,-3.5 1.01,-4.86 0.67,-1.36 1.62,-2.41 2.85,-3.16 1.23,-0.75 2.68,-1.12 4.37,-1.12 z m 0,2.01 c -1.22,0 -2.28,0.28 -3.17,0.85 -0.89,0.57 -1.58,1.38 -2.07,2.44 -0.48,1.07 -0.72,2.34 -0.72,3.83 0,1.49 0.24,2.76 0.72,3.83 0.48,1.07 1.17,1.88 2.07,2.44 0.9,0.56 1.95,0.85 3.17,0.85 1.22,0 2.3,-0.28 3.18,-0.85 0.88,-0.57 1.57,-1.38 2.06,-2.44 0.49,-1.06 0.72,-2.34 0.72,-3.83 0,-1.49 -0.24,-2.76 -0.72,-3.83 -0.48,-1.07 -1.17,-1.88 -2.06,-2.44 -0.89,-0.56 -1.95,-0.85 -3.18,-0.85 z m 4.84,-7.58 c -0.05,0.79 -0.2,1.45 -0.44,1.99 -0.24,0.54 -0.57,0.94 -0.99,1.21 -0.42,0.27 -0.94,0.4 -1.57,0.4 -0.5,0 -0.93,-0.09 -1.28,-0.28 -0.35,-0.19 -0.65,-0.4 -0.9,-0.63 -0.25,-0.23 -0.5,-0.44 -0.74,-0.63 -0.24,-0.19 -0.51,-0.28 -0.79,-0.28 -0.4,0 -0.69,0.16 -0.89,0.5 -0.2,0.33 -0.34,0.78 -0.43,1.36 h -1.69 c 0.09,-1.18 0.38,-2.08 0.87,-2.69 0.49,-0.61 1.21,-0.91 2.16,-0.91 0.48,0 0.9,0.09 1.25,0.28 0.35,0.19 0.65,0.4 0.91,0.63 0.26,0.23 0.51,0.44 0.74,0.63 0.23,0.19 0.48,0.28 0.75,0.28 0.41,0 0.72,-0.16 0.91,-0.5 0.19,-0.34 0.34,-0.78 0.43,-1.36 h 1.69 v 0 z"
           id="path2201" /><path
           class="cls-6"
           d="m 309.46,419.68 v -17.73 h 12.44 v 2.01 h -10.29 v 5.72 h 8.01 v 2.01 h -8.01 v 5.96 h 10.7 v 2.01 h -12.85 z"
           id="path2203" /><path
           class="cls-6"
           d="m 334.99,401.68 c 1.56,0 2.9,0.32 4.03,0.95 1.13,0.63 2.07,1.57 2.82,2.81 l -1.8,1.4 c -0.66,-1.15 -1.41,-1.96 -2.24,-2.43 -0.83,-0.48 -1.84,-0.71 -3.02,-0.71 -0.95,0 -1.73,0.13 -2.35,0.4 -0.62,0.27 -1.07,0.62 -1.36,1.06 -0.29,0.44 -0.43,0.94 -0.43,1.49 0,0.63 0.2,1.18 0.59,1.65 0.39,0.48 1.18,0.85 2.36,1.12 l 3.84,0.86 c 1.7,0.38 2.89,0.94 3.56,1.71 0.67,0.77 1.01,1.71 1.01,2.84 0,1 -0.28,1.9 -0.85,2.67 -0.57,0.77 -1.36,1.38 -2.38,1.81 -1.02,0.43 -2.22,0.64 -3.6,0.64 -1.29,0 -2.42,-0.17 -3.4,-0.52 -0.98,-0.35 -1.81,-0.82 -2.51,-1.41 -0.7,-0.59 -1.27,-1.25 -1.72,-1.99 l 1.88,-1.53 c 0.34,0.68 0.78,1.28 1.31,1.8 0.54,0.52 1.19,0.92 1.95,1.21 0.76,0.29 1.64,0.43 2.62,0.43 0.91,0 1.71,-0.11 2.38,-0.34 0.67,-0.22 1.19,-0.56 1.55,-0.99 0.36,-0.43 0.54,-0.97 0.54,-1.6 0,-0.57 -0.19,-1.09 -0.56,-1.55 -0.37,-0.46 -1.08,-0.8 -2.12,-1.03 l -4.16,-0.94 c -1.09,-0.25 -1.98,-0.59 -2.65,-1.04 -0.67,-0.44 -1.15,-0.96 -1.45,-1.56 -0.3,-0.6 -0.44,-1.25 -0.44,-1.95 0,-0.95 0.27,-1.82 0.79,-2.62 0.53,-0.8 1.29,-1.44 2.28,-1.92 0.99,-0.48 2.17,-0.72 3.53,-0.72 z"
           id="path2205" /></g></g></g><sodipodi:namedview
     id="namedview2210"
     pagecolor="#ffffff"
     bordercolor="#000000"
     borderopacity="0.25"
     inkscape:showpageshadow="2"
     inkscape:pageopacity="0.0"
     inkscape:pagecheckerboard="0"
     inkscape:deskcolor="#d1d1d1"
     showgrid="false"
     inkscape:zoom="0.75569175"
     inkscape:cx="21.172654"
     inkscape:cy="284.50754"
     inkscape:window-width="1920"
     inkscape:window-height="1017"
     inkscape:window-x="2552"
     inkscape:window-y="-8"
     inkscape:window-maximized="1"
     inkscape:current-layer="Camada_1" /><defs
     id="defs2113"><style
       id="style2102">.cls-1{clip-path:url(#clippath);}.cls-2,.cls-3{fill:none;}.cls-2,.cls-4,.cls-5,.cls-6,.cls-7{stroke-width:0px;}.cls-8{clip-path:url(#clippath-1);}.cls-9{clip-path:url(#clippath-2);}.cls-3{stroke:#1a1a1a;stroke-miterlimit:10;}.cls-4{fill:#73ad24;}.cls-5{fill:#662d80;}.cls-6{fill:#fff;}.cls-7{fill:#ed9118;}</style><clipPath
       id="clippath"><circle
         class="cls-2"
         cx="309.51001"
         cy="63.73"
         r="31.49"
         id="circle2104" /></clipPath><clipPath
       id="clippath-1"><circle
         class="cls-2"
         cx="507.51001"
         cy="386.73001"
         r="31.49"
         id="circle2107" /></clipPath><clipPath
       id="clippath-2"><circle
         class="cls-2"
         cx="92.510002"
         cy="387.73001"
         r="31.49"
         id="circle2110" /></clipPath><style
       id="style1875">.cls-1{clip-path:url(#clippath);}.cls-2,.cls-3{fill:none;}.cls-2,.cls-4,.cls-5,.cls-6,.cls-7{stroke-width:0px;}.cls-8{clip-path:url(#clippath-1);}.cls-9{clip-path:url(#clippath-2);}.cls-3{stroke:#1a1a1a;stroke-miterlimit:10;}.cls-4{fill:#73ad24;}.cls-5{fill:#662d80;}.cls-6{fill:#fff;}.cls-7{fill:#ed9118;}</style><clipPath
       id="clippath-29"><circle
         class="cls-2"
         cx="309.51001"
         cy="63.73"
         r="31.49"
         id="circle1877" /></clipPath><clipPath
       id="clippath-1-5"><circle
         class="cls-2"
         cx="507.51001"
         cy="386.73001"
         r="31.49"
         id="circle1880" /></clipPath><clipPath
       id="clippath-2-5"><circle
         class="cls-2"
         cx="92.510002"
         cy="387.73001"
         r="31.49"
         id="circle1883" /></clipPath></defs><circle
     class="cls-3"
     cx="260"
     cy="260"
     r="165.75999"
     id="circle1890" /><g
     id="g4063"
     transform="translate(-39.999972,-38.000003)"><line
       class="cls-3"
       x1="224.70045"
       y1="143.23999"
       x2="245.70045"
       y2="141.23999"
       id="line1892" /><line
       class="cls-3"
       x1="232.48045"
       y1="157.37"
       x2="245.92046"
       y2="141.10999"
       id="line1894" /></g><g
     id="g4059"
     transform="translate(-34.701753,-40.000002)"><line
       class="cls-3"
       x1="471.08047"
       y1="311.47998"
       x2="457.83047"
       y2="327.88998"
       id="line1896" /><line
       class="cls-3"
       x1="455.54047"
       y1="307.16"
       x2="457.77048"
       y2="328.13998"
       id="line1898" /></g><line
     class="cls-3"
     x1="138.45703"
     y1="385.53998"
     x2="132.07703"
     y2="365.42999"
     id="line1900" /><line
     class="cls-3"
     x1="150.63702"
     y1="374.94998"
     x2="131.90703"
     y2="365.25"
     id="line1902" /><g
     class="cls-8"
     clip-path="url(#clippath-1)"
     id="g1946"
     transform="translate(-46.799516,-28.260012)"><path
       class="cls-6"
       d="m 588.06,326.06 c 10.04,0 15.5,5.46 15.5,15.59 v 4.93 c 0,10.13 -5.46,15.59 -15.5,15.59 h -4.14 v 25.54 h -9.33 v -61.64 h 13.47 z m -4.14,27.47 h 3.78 c 4.49,0 6.52,-2.38 6.52,-7.57 v -3.7 c 0,-5.2 -2.02,-7.57 -6.52,-7.57 h -3.78 z"
       id="path1942" /><path
       class="cls-6"
       d="m 580.79,400.94 c 1.2,0 2.24,0.22 3.13,0.66 0.89,0.44 1.58,1.06 2.08,1.87 0.5,0.81 0.75,1.77 0.75,2.87 0,1.1 -0.25,2.07 -0.75,2.87 -0.5,0.8 -1.2,1.43 -2.08,1.87 -0.88,0.44 -1.93,0.66 -3.13,0.66 h -4.11 v 6.93 h -2.15 v -17.73 z m -0.32,8.79 c 1.39,0 2.42,-0.29 3.06,-0.87 0.64,-0.58 0.97,-1.42 0.97,-2.51 0,-1.09 -0.32,-1.95 -0.97,-2.52 -0.65,-0.57 -1.66,-0.86 -3.06,-0.86 h -3.79 v 6.77 h 3.79 z"
       id="path1944" /></g></svg>
