<?xml version="1.0" encoding="UTF-8" standalone="no"?>
<svg
   height="48"
   viewBox="0 -960 960 960"
   width="48"
   version="1.1"
   id="svg4"
   sodipodi:docname="comunicacao-visual.svg"
   inkscape:version="1.2.1 (9c6d41e410, 2022-07-14)"
   xmlns:inkscape="http://www.inkscape.org/namespaces/inkscape"
   xmlns:sodipodi="http://sodipodi.sourceforge.net/DTD/sodipodi-0.dtd"
   xmlns="http://www.w3.org/2000/svg"
   xmlns:svg="http://www.w3.org/2000/svg">
  <defs
     id="defs8" />
  <sodipodi:namedview
     id="namedview6"
     pagecolor="#ffffff"
     bordercolor="#000000"
     borderopacity="0.25"
     inkscape:showpageshadow="2"
     inkscape:pageopacity="0.0"
     inkscape:pagecheckerboard="0"
     inkscape:deskcolor="#d1d1d1"
     showgrid="false"
     inkscape:zoom="4.4947918"
     inkscape:cx="-78.09038"
     inkscape:cy="40.491308"
     inkscape:window-width="1920"
     inkscape:window-height="1017"
     inkscape:window-x="2552"
     inkscape:window-y="-8"
     inkscape:window-maximized="1"
     inkscape:current-layer="svg4" />
  <path
     d="M220-520 80-600v-160l140-80 140 80v160l-140 80Zm0-69 80-46v-90l-80-46-80 46v90l80 46Zm430 71v-70l150 88v280L560-80 320-220v-280l150-87v69l-90 53v211l180 104 180-104v-211l-90-53Zm-120 98v-460h351l-73 110 73 110H590v240h-60Zm30 86ZM220-680Z"
     id="path2"
     style="fill:#e2973b;fill-opacity:1" />
</svg>
