<?xml version="1.0" encoding="UTF-8" standalone="no"?>
<svg
   height="48"
   viewBox="0 -960 960 960"
   width="48"
   version="1.1"
   id="svg310"
   sodipodi:docname="consultoria-e-projetos.svg"
   inkscape:version="1.2.1 (9c6d41e410, 2022-07-14)"
   xmlns:inkscape="http://www.inkscape.org/namespaces/inkscape"
   xmlns:sodipodi="http://sodipodi.sourceforge.net/DTD/sodipodi-0.dtd"
   xmlns="http://www.w3.org/2000/svg"
   xmlns:svg="http://www.w3.org/2000/svg">
  <defs
     id="defs314" />
  <sodipodi:namedview
     id="namedview312"
     pagecolor="#ffffff"
     bordercolor="#000000"
     borderopacity="0.25"
     inkscape:showpageshadow="2"
     inkscape:pageopacity="0.0"
     inkscape:pagecheckerboard="0"
     inkscape:deskcolor="#d1d1d1"
     showgrid="false"
     inkscape:zoom="17.979167"
     inkscape:cx="13.738123"
     inkscape:cy="24.02781"
     inkscape:window-width="2560"
     inkscape:window-height="1017"
     inkscape:window-x="-8"
     inkscape:window-y="-8"
     inkscape:window-maximized="1"
     inkscape:current-layer="svg310" />
  <path
     d="M480-80q-85 0-158-30.5T195-195q-54-54-84.5-127T80-480q0-84 30.5-157T195-764q54-54 127-85t158-31q75 0 140 24t117 66l-43 43q-44-35-98-54t-116-19q-145 0-242.5 97.5T140-480q0 145 97.5 242.5T480-140q37 0 71.5-7t66.5-21l45 46q-41 20-87 31t-96 11Zm290-90v-120H650v-60h120v-120h60v120h120v60H830v120h-60ZM421-298 256-464l45-45 120 120 414-414 46 45-460 460Z"
     id="path308"
     style="fill:#81af43;fill-opacity:1" />
</svg>
