<?xml version="1.0" encoding="UTF-8" standalone="no"?>
<svg
   height="48"
   viewBox="0 -960 960 960"
   width="48"
   version="1.1"
   id="svg435"
   sodipodi:docname="producao-cultural.svg"
   inkscape:version="1.2.1 (9c6d41e410, 2022-07-14)"
   xmlns:inkscape="http://www.inkscape.org/namespaces/inkscape"
   xmlns:sodipodi="http://sodipodi.sourceforge.net/DTD/sodipodi-0.dtd"
   xmlns="http://www.w3.org/2000/svg"
   xmlns:svg="http://www.w3.org/2000/svg">
  <defs
     id="defs439" />
  <sodipodi:namedview
     id="namedview437"
     pagecolor="#ffffff"
     bordercolor="#000000"
     borderopacity="0.25"
     inkscape:showpageshadow="2"
     inkscape:pageopacity="0.0"
     inkscape:pagecheckerboard="0"
     inkscape:deskcolor="#d1d1d1"
     showgrid="false"
     inkscape:zoom="17.979167"
     inkscape:cx="13.738123"
     inkscape:cy="24.02781"
     inkscape:window-width="2560"
     inkscape:window-height="1017"
     inkscape:window-x="-8"
     inkscape:window-y="-8"
     inkscape:window-maximized="1"
     inkscape:current-layer="svg435" />
  <path
     d="M773-676q13.6 0 22.8-10 9.2-10 9.2-22 0-13.6-9.2-22.8-9.2-9.2-22.8-9.2-13.6 0-22.8 9.2-9.2 9.2-9.2 22.8 0 12 9.2 22t22.8 10Zm-172 0q13.6 0 22.8-10 9.2-10 9.2-22 0-13.6-9.2-22.8-9.2-9.2-22.8-9.2-13.6 0-22.8 9.2-9.2 9.2-9.2 22.8 0 12 9.2 22t22.8 10Zm-22 146h214q0-33-33-51.5T686-600q-41 0-74 18.5T579-530ZM274-81q-97.5 0-165.75-70T40-315v-267h468v267q0 94-68.25 164T274-81Zm.159-60Q346-141 397-193.5T448-315v-207H100v207q0 69 51.159 121.5 51.16 52.5 123 52.5ZM686-379q-34 0-66-8.5T559-412v-67q26 15 58.5 27.5T686-439q71.775 0 122.888-48Q860-535 860-604v-216H509v189h-60v-249h471v276q0 93-68.25 159T686-379Zm-497-7q13.6 0 22.8-9.2 9.2-9.2 9.2-22.8 0-13.6-9.2-22.8-9.2-9.2-22.8-9.2-13.6 0-22.8 9.2-9.2 9.2-9.2 22.8 0 13.6 9.2 22.8 9.2 9.2 22.8 9.2Zm173 0q13.6 0 22.8-9.2 9.2-9.2 9.2-22.8 0-13.6-9.2-22.8-9.2-9.2-22.8-9.2-13.6 0-22.8 9.2-9.2 9.2-9.2 22.8 0 13.6 9.2 22.8 9.2 9.2 22.8 9.2Zm-85 155q41 0 74-18.5t33-51.5H170q0 33 33 51.5t74 18.5Zm-2-105Zm410-289Z"
     id="path433"
     style="fill:#0972ad;fill-opacity:1" />
</svg>
